<?xml version="1.0" encoding="UTF-8"?>
<!DOCTYPE svg PUBLIC "-//W3C//DTD SVG 1.1//EN" "http://www.w3.org/Graphics/SVG/1.1/DTD/svg11.dtd">
<!-- Creator: CorelDRAW -->
<svg xmlns="http://www.w3.org/2000/svg" xml:space="preserve" width="297mm" height="210mm" version="1.1" style="shape-rendering:geometricPrecision; text-rendering:geometricPrecision; image-rendering:optimizeQuality; fill-rule:evenodd; clip-rule:evenodd"
viewBox="0 0 29700 21000"
 xmlns:xlink="http://www.w3.org/1999/xlink">
 <defs>
  <style type="text/css">
   <![CDATA[
    .str1 {stroke:black;stroke-width:10;stroke-opacity:0.501961}
    .str3 {stroke:black;stroke-width:50}
    .str5 {stroke:#434242;stroke-width:10}
    .str2 {stroke:#3F3E3F;stroke-width:10}
    .str0 {stroke:black;stroke-width:10}
    .str6 {stroke:#2B2A29;stroke-width:7.62}
    .str4 {stroke:black;stroke-width:7.62}
    .fil9 {fill:none}
    .fil3 {fill:#FEFEFE}
    .fil2 {fill:#EBECEC}
    .fil1 {fill:#D9DADA}
    .fil11 {fill:#D9DADA}
    .fil0 {fill:#A2D9F7}
    .fil7 {fill:#FEFEFE;fill-rule:nonzero}
    .fil6 {fill:#D9DADA;fill-rule:nonzero}
    .fil10 {fill:#434242;fill-rule:nonzero}
    .fil8 {fill:#2B2A29;fill-rule:nonzero}
    .fil5 {fill:black;fill-rule:nonzero}
    .fil4 {fill:#FEFEFE;fill-rule:nonzero;fill-opacity:0.501961}
   ]]>
  </style>
 </defs>
 <g id="Plan_x0020_1">
  <metadata id="CorelCorpID_0Corel-Layer"/>
  <rect class="fil0" x="1016" y="995" width="27700" height="17110"/>
  <g id="_1356904661200">
   <path class="fil1 str0" d="M11370 17355l9 85c6,55 19,98 45,148 25,48 96,64 149,64l0 0c-15,72 -20,151 -20,224l0 229 -2599 0c4,-93 122,-152 205,-126 72,22 139,20 213,28 54,6 103,10 151,35 58,31 121,70 160,-14 41,-87 167,-203 260,-227l372 21c118,7 340,-37 412,-137 78,-94 182,-149 212,-273 26,0 43,13 68,-3 81,-51 42,7 102,16 27,4 32,-47 70,-37 30,8 44,16 65,-13 18,-25 74,-23 125,-19l0 0z"/>
   <path class="fil1 str0" d="M11502 16080l91 -3 0 0c0,61 -5,194 -30,247 -27,59 -38,-34 -39,-51 -3,-39 -64,-140 -34,-167 8,-8 12,-16 13,-25l0 0z"/>
   <path class="fil1 str0" d="M3757 995c0,11 4,23 0,34 -15,43 -118,17 -156,22 -68,10 -115,91 -163,136 -18,17 -7,47 -27,65 -17,15 -37,22 -56,35 -29,19 -96,44 -96,81 0,91 -112,139 -186,150 -56,9 -82,69 -82,121 0,38 -40,51 -44,88 -4,46 17,92 6,136 -15,59 -24,155 -21,216 4,89 61,37 108,58 24,11 -35,83 -42,96 -23,42 -30,95 -53,134 -26,45 -85,99 -93,147 -4,26 -18,53 -36,71 -16,16 -32,25 -36,49 -8,42 4,75 -12,117 -9,21 -29,35 -31,61 -3,30 -9,64 -22,91 -11,22 -45,94 -5,106 23,7 27,1 38,-9 10,-10 18,-36 34,-38 11,-1 20,6 31,8 17,45 -1,56 -30,85 -22,23 -26,22 -34,59 -16,77 -101,38 -101,111 3,-10 65,-23 78,-11 13,11 25,21 40,31 14,9 21,23 34,35 16,16 49,7 68,24 16,14 34,57 34,78 8,88 94,221 163,272 92,67 141,159 200,251 22,33 76,185 104,195 63,23 56,19 89,74 24,39 43,18 43,83 0,68 -14,99 45,146 55,44 66,90 87,153 9,27 32,59 38,82 15,4 36,55 59,59 33,129 129,-88 145,-7 2,1 6,3 7,5 18,0 37,-19 60,-25 49,-13 95,16 119,-59 13,-41 45,-33 79,-43 19,-6 63,-51 75,-43 82,48 115,-54 209,-54 26,104 -9,122 -74,197 -33,39 -102,172 -6,172l1 1c0,28 1,47 -18,86l-43 90c10,33 -10,86 -43,100 -41,17 -31,-7 -41,49 -10,60 -9,120 -9,182 0,54 -41,56 -52,91 -10,32 0,98 0,134 0,21 -107,11 -142,21 0,3 -39,36 -42,36 -2,8 -39,-15 -47,-16l-46 -6c0,-2 0,-1 -2,-2 0,-21 -13,-73 -37,-77 0,-2 -68,-23 -81,-38 -33,-37 -52,-10 -85,-4 -2,8 -39,63 -51,45 -40,0 -46,45 -38,74 3,12 26,87 15,90 -2,8 -32,20 -39,21 -14,4 -35,11 -48,4 -12,-6 -23,-7 -33,5 -20,29 -105,73 -109,13 -1,-15 -66,-32 -81,-32 -88,0 -99,76 -197,70 -43,-2 -40,16 -71,37 -61,42 4,65 18,130 3,15 -23,194 -32,199 -37,19 -21,34 -41,75 -10,21 -60,71 -61,84 4,37 8,97 -8,129 -12,23 -62,72 -65,93 -10,5 -14,66 -17,78 -27,7 -81,115 -102,143 -15,21 -145,117 -168,121 -1,6 -20,15 -24,22 -8,12 2,29 -10,41 -12,12 -43,15 -47,32 -16,11 -76,118 -101,91 -19,-20 -50,7 -75,27 -13,10 2,67 -10,86 -23,36 -27,23 -39,69l-41 153c-12,47 -33,32 -33,86 0,28 -25,45 -23,74 4,64 63,50 -8,91 -25,14 43,86 -36,86 -20,8 -28,60 -34,81 -18,56 -68,38 -68,100 0,58 -64,28 -88,53 53,66 20,102 -14,167 -7,13 -34,14 -34,31 0,16 39,38 24,49 -13,11 -51,21 -59,35 7,4 12,10 13,18 4,23 32,149 48,156 64,26 76,-13 80,74 5,96 92,72 120,126 21,42 -50,67 -33,107 18,40 61,74 60,119 -3,80 -6,104 38,160 24,30 -78,25 -20,105 27,38 45,24 57,82 10,50 31,153 -7,195 -43,47 22,137 12,200 -15,100 6,123 58,195 47,65 -16,90 -32,173 -4,20 47,36 66,88 25,68 26,143 30,161 10,49 10,100 15,150l0 0c0,59 51,94 -32,70 -57,-17 -96,-29 -159,-27 -148,6 -304,50 -434,120l-525 354c-23,15 -140,89 -146,105l0 -9975 2742 0 0 0z"/>
  </g>
  <g id="_1356904657296">
   <path class="fil2 str0" d="M11370 17355l9 85c6,55 19,98 45,148 25,48 96,64 149,64l0 0c4,-19 9,-38 14,-55 16,-51 136,-64 183,-81 18,-6 127,-73 54,-70 -68,3 -124,49 -197,43 -34,-3 -79,-46 -77,-80 3,-61 -57,-48 -102,-48 -19,0 -48,-3 -78,-6l0 0z"/>
   <path class="fil2 str0" d="M24995 5575c3,-48 10,-67 26,-113 15,-42 50,-124 82,-154 53,-50 133,-74 173,-137 28,-43 71,-72 96,-113 44,-71 36,-143 92,-214 26,-33 46,-64 65,-103 22,-45 20,-132 53,-165 63,-34 136,-77 188,-126 86,-81 232,-25 303,-137 32,-51 82,-76 101,-134 16,-49 37,-122 87,-151 6,-3 16,-15 20,-16 9,-35 153,12 163,13 4,28 83,82 111,88 73,14 79,11 143,-21 70,-34 121,-58 202,-58 87,0 146,-65 212,-114 33,-28 56,-71 98,-87 32,-12 49,-10 83,-10 45,0 71,-75 102,-101 16,-13 24,-20 45,-24 14,-3 22,7 34,-6l-7 -50c30,6 64,11 80,-5 9,-9 3,-95 41,-70 42,28 16,31 53,4 49,-37 89,32 119,56 33,27 60,-40 104,-28 32,8 110,57 98,98 -8,27 -36,38 -42,68 -8,36 13,52 29,78 18,30 72,74 56,111l115 3c55,-9 97,-25 154,-19 68,8 135,9 190,-37 23,-19 59,-37 74,-62 26,-41 57,-73 92,-105l83 -56 0 0 0 5265 -77 35c-11,11 -23,21 -34,32 -7,8 -10,17 -17,24 -10,12 -20,20 -36,15 -10,-3 -5,-5 -16,4 -30,26 -44,68 -74,29 -18,-23 -35,22 -47,34 -18,16 -22,-6 -35,-6 -18,0 -41,24 -55,35 -12,10 -68,71 -76,71 -37,0 -21,94 -73,43 -3,-3 -5,-4 -8,-4l0 0c-10,-22 -60,-79 -80,-97 -28,-26 -63,-61 -95,-82 -27,-18 -58,-31 -86,-48 -92,-54 -158,-126 -260,-165 -53,0 -128,9 -176,-15 -45,-23 -110,-66 -101,15l5 46 0 2c-33,0 -161,-127 -167,-158 -19,-98 -102,-134 -137,-221 -51,-76 -117,-150 -165,-228l-136 -221c-29,-39 -40,-79 -51,-124 -12,-50 -36,-39 -64,-70 -18,-19 -32,-63 -38,-89 -13,-49 -10,-47 -53,-75 -22,-14 -24,-30 -35,-53 -22,-44 -47,-113 -47,-163 0,-58 -9,-113 12,-167 17,-41 53,-69 47,-109 -4,-30 -17,-61 -19,-92 -2,-50 -22,-100 -11,-150 14,-67 12,-123 10,-189 0,-93 32,-199 96,-263 10,-10 47,-43 47,-56 0,-21 -35,-37 -51,-49 -36,-24 -83,-48 -113,-13 -64,75 -88,40 -157,2 -30,-19 -117,-94 -146,-27 -32,73 -51,45 -108,15 -44,-23 -30,-38 -49,-72 -16,-28 -64,-53 -97,-47 -33,6 -162,58 -181,44 -25,-19 -49,-56 -72,-80 -38,-29 -112,-101 -153,-114 -21,-7 -36,-9 -55,-20 -23,-13 -43,-37 -61,-54 -31,-28 -20,-57 -43,-81 -10,-11 -41,-12 -55,-20 -34,-18 -82,-102 -96,-139 -3,-15 -15,-39 -21,-54 -6,-14 -5,-30 -8,-45 -4,-21 -7,-47 -27,-58 -35,-19 -72,-22 -104,-47l-70 -50 0 0z"/>
   <path class="fil2 str0" d="M13294 995l-11 103c15,53 -12,107 -27,154 -22,69 -48,168 -99,223 -35,38 -71,46 -123,46 -54,0 -92,19 -138,45l0 0c37,6 69,0 107,9 44,11 88,61 88,107 0,15 4,41 8,55 4,13 57,33 70,36 79,23 166,80 250,50 60,-21 111,-30 176,-18 35,7 84,-12 88,36 4,64 28,130 32,190 3,43 -28,133 7,164 39,19 81,30 115,57 75,59 87,56 189,61 46,2 94,50 146,61 40,8 61,43 94,64 38,24 97,-2 142,18 60,27 -6,73 32,111l135 25c37,7 51,53 81,71 38,22 152,83 155,131 3,47 45,95 81,121 68,50 109,-44 153,30 8,13 46,76 68,51 27,-30 59,-50 59,10 1,50 50,62 88,72 43,11 46,38 63,77 19,44 35,37 73,53 34,15 92,97 111,128 29,48 21,72 82,87 50,12 114,32 144,71 24,30 42,23 78,11 20,-6 44,29 58,43l280 127c57,26 126,78 186,81 91,5 -15,-175 -4,-232 25,-130 194,-59 286,-59 62,14 120,47 183,63 26,7 43,14 72,13 34,-1 88,-48 110,-12 28,45 101,11 143,19 49,10 104,14 157,14 49,26 148,13 205,21 107,16 200,55 313,55 55,0 122,9 174,-6l170 -47c48,-5 100,-21 142,-47 39,-25 36,-69 50,-106 25,-68 126,-117 194,-133 62,-15 85,5 137,26 22,9 43,35 67,35 44,0 7,-87 78,-63 44,15 74,68 132,73 48,9 100,8 143,33 57,33 162,76 228,64 86,-16 123,-26 123,-119 0,-109 -25,-231 121,-177 43,16 93,3 93,63 0,51 -3,91 21,134 45,35 109,13 156,37 99,50 169,50 273,4 68,-30 71,-74 135,-103 34,-15 66,-41 96,-63 32,-23 33,-131 33,-178 0,-90 114,-44 172,-76 58,-12 110,-19 158,20 72,57 110,81 202,100 90,18 186,45 279,45 63,-6 118,11 171,37 62,31 85,44 148,2l269 -209 274 377c105,-53 29,-129 48,-208 7,-30 45,-7 63,-18 33,-18 47,-91 77,-91 31,0 58,-9 87,-9 39,0 97,3 136,8 51,7 63,48 110,65l43 29c15,-22 31,-42 46,-64 16,-23 39,-66 64,-78 35,-18 33,1 64,1 27,0 23,-34 37,-49 14,-14 27,-12 45,-20 37,-16 34,-45 78,-57 48,-12 34,-19 45,-54 9,-30 55,13 59,-58 2,-29 25,-53 50,-75l92 48c44,14 61,62 105,72 69,15 126,58 196,74 43,10 77,-20 118,-33l142 -42c40,0 164,-12 173,44 16,2 66,63 54,82 -43,67 -5,115 11,176 18,68 -51,149 -27,198 49,81 109,129 211,113 48,-7 50,22 80,23 30,2 123,-9 133,23 20,61 -77,140 -37,229 17,39 30,61 39,103 10,50 -18,98 -18,146 -12,49 21,111 73,118 29,4 59,10 86,21 31,13 51,80 59,109 -6,22 -14,45 -25,67 -28,54 -1,67 -1,121 0,70 -105,98 -33,165l13 56c4,45 -11,86 -50,112 -48,32 -47,3 -56,59 -8,55 -76,78 -88,119 -10,33 -29,85 -61,97 -52,20 -56,95 -102,146 -33,36 -101,72 -101,119 13,4 36,38 56,46l91 35c38,11 63,17 92,44 14,13 43,35 60,40 18,5 33,-24 54,-12 43,24 64,38 114,49 38,9 51,4 72,42 35,63 64,42 131,42 49,0 86,49 138,49l110 -7 0 0c3,-48 10,-67 26,-113 15,-42 50,-124 82,-154 53,-50 133,-74 173,-137 28,-43 71,-72 96,-113 44,-71 36,-143 92,-214 26,-33 46,-64 65,-103 22,-45 20,-132 53,-165 63,-34 136,-77 188,-126 86,-81 232,-25 303,-137 32,-51 82,-76 101,-134 16,-49 37,-122 87,-151 6,-3 16,-15 20,-16 9,-35 153,12 163,13 4,28 83,82 111,88 73,14 79,11 143,-21 70,-34 121,-58 202,-58 87,0 146,-65 212,-114 33,-28 56,-71 98,-87 32,-12 49,-10 83,-10 45,0 71,-75 102,-101 16,-13 24,-20 45,-24 14,-3 22,7 34,-6l-7 -50c30,6 64,11 80,-5 9,-9 3,-95 41,-70 42,28 16,31 53,4 49,-37 89,32 119,56 33,27 60,-40 104,-28 32,8 110,57 98,98 -8,27 -36,38 -42,68 -8,36 13,52 29,78 18,30 72,74 56,111l115 3c55,-9 97,-25 154,-19 68,8 135,9 190,-37 23,-19 59,-37 74,-62 26,-41 57,-73 92,-105l83 -56 0 0 0 -2684 -15422 0 0 0z"/>
   <path class="fil2 str0" d="M13294 995l-9537 0 0 0c0,11 4,23 0,34 -15,43 -118,17 -156,22 -68,10 -115,91 -163,136 -18,17 -7,47 -27,65 -17,15 -37,22 -56,35 -29,19 -96,44 -96,81 0,91 -112,139 -186,150 -56,9 -82,69 -82,121 0,38 -40,51 -44,88 -4,46 17,92 6,136 -15,59 -24,155 -21,216 4,89 61,37 108,58 24,11 -35,83 -42,96 -23,42 -30,95 -53,134 -26,45 -85,99 -93,147 -4,26 -18,53 -36,71 -16,16 -32,25 -36,49 -8,42 4,75 -12,117 -9,21 -29,35 -31,61 -3,30 -9,64 -22,91 -11,22 -45,94 -5,106 23,7 27,1 38,-9 10,-10 18,-36 34,-38 11,-1 20,6 31,8 17,45 -1,56 -30,85 -22,23 -26,22 -34,59 -16,77 -101,38 -101,111 3,-10 65,-23 78,-11 13,11 25,21 40,31 14,9 21,23 34,35 16,16 49,7 68,24 16,14 34,57 34,78 8,88 94,221 163,272 92,67 141,159 200,251 22,33 76,185 104,195 63,23 56,19 89,74 24,39 43,18 43,83 0,68 -14,99 45,146 55,44 66,90 87,153 9,27 32,59 38,82 15,4 36,55 59,59 33,129 129,-88 145,-7 2,1 6,3 7,5 18,0 37,-19 60,-25 49,-13 95,16 119,-59 13,-41 45,-33 79,-43 19,-6 63,-51 75,-43 82,48 115,-54 209,-54 7,28 9,49 8,68l0 0c34,15 122,33 158,39 42,7 66,26 103,45 78,38 138,105 234,108 48,2 92,-29 131,-29 0,55 18,89 3,149 -15,62 -39,100 -69,155 -28,51 -39,61 25,77 44,11 194,22 194,79 0,39 114,33 142,24 35,-12 18,-34 68,-8 24,12 74,9 96,-6 44,-29 57,-19 97,12 55,15 82,-58 100,10 9,35 77,-38 104,-38 33,0 124,163 149,192 48,57 44,95 44,163 0,12 -9,87 1,87 11,22 122,-39 141,-42 34,-5 72,19 102,33 22,19 96,7 130,19 36,12 19,71 61,71 134,0 31,-72 70,-131 33,-50 67,-72 119,-90 0,-22 -38,-51 -38,-69 44,0 86,8 130,-3 76,-18 55,11 118,35 37,37 100,3 141,28 18,11 31,118 33,145 2,34 20,62 41,88 21,28 79,46 109,63 36,21 48,45 76,71 74,66 147,26 227,61 44,18 63,81 122,81 20,0 91,-26 98,-18 18,20 34,12 53,26 18,13 28,65 50,61 46,-9 59,-32 98,-52 42,-28 83,-89 130,-103 50,-14 84,-58 133,-51 32,4 81,-12 113,-19 43,-8 83,-42 125,-58 47,-18 118,3 166,12 23,0 38,-4 57,-7 18,-64 178,-1 226,-32 43,-27 65,-168 65,-217 0,-80 76,-81 110,-136 47,-71 -7,-118 -59,-153 -47,-31 12,-110 31,-139 65,-98 212,-91 176,-238 -4,-16 75,-32 91,-40 40,-20 -8,-64 64,-54 54,8 98,4 147,-17 22,-31 61,23 93,-3 26,-21 25,-68 64,-55 28,10 44,10 73,17 19,4 81,-45 88,-62 29,-61 50,-14 90,7 37,20 129,42 136,82 0,14 21,66 8,67 -17,2 -33,-33 -50,-18 -30,27 6,65 19,91 14,29 -101,89 -131,89 -74,0 -68,62 -68,111 0,25 12,178 24,179 37,3 81,7 117,14 113,22 157,-102 212,-175 40,-58 78,-138 156,-128 36,5 156,32 179,7 21,-23 -6,-56 43,-66 56,-12 79,-10 109,-57 19,-30 29,-20 52,-37 28,-20 -2,-48 -2,-68 -10,-28 -5,-60 7,-84 13,-23 -3,-66 31,-75 69,-18 47,-90 37,-145 -5,-28 -26,-116 -18,-137 0,-40 -24,-112 -49,-143 -47,-56 -28,-145 -59,-208 -14,-29 -51,-36 -71,-59 -33,-37 -26,-86 -10,-133 24,-68 30,-97 -7,-163 -17,-30 -61,-52 -61,-87 0,-48 31,-140 52,-183 29,-58 104,-113 156,-150 25,-18 67,-97 101,-89 30,7 22,30 63,30 104,0 59,-90 110,-137 15,-14 38,-7 54,-20 31,-24 47,-51 80,-73 9,-6 52,-21 54,-29 9,-44 56,-38 87,-64 44,-37 -20,-48 20,-91 46,-48 22,-90 90,-52 46,26 14,-91 23,-117 16,-42 32,-36 48,-23l16 -25c7,-23 13,-43 14,-67 1,-24 33,-27 51,-22 42,13 74,61 119,66 24,-29 43,-16 95,-31 12,-3 -11,-75 20,-106 22,-22 45,-45 67,-67 15,-15 37,3 51,-7 27,-20 18,-50 51,-58 56,-13 42,-31 74,-66 25,-28 81,-97 119,-99 62,-3 34,-124 90,-87 26,18 60,37 81,18 22,-21 -13,-42 19,-66 13,-10 41,-13 76,-14l0 0 -16 -40c-27,-55 -56,-136 -56,-200l1 -1c21,0 49,14 73,16 30,2 60,-9 89,-13 51,-8 123,17 171,29 37,9 58,17 96,7 16,-16 40,-26 61,-33 16,-5 28,-18 42,-27l73 -32 0 0c46,-26 84,-45 138,-45 51,0 88,-8 123,-46 51,-55 76,-154 99,-223 15,-47 42,-101 27,-154l11 -103 0 0z"/>
  </g>
  <path class="fil3 str0" d="M17566 9099l76 67c36,26 69,11 105,29 55,28 136,52 201,35 55,-14 90,-42 150,-42 43,0 154,26 183,-7 50,-57 83,-137 104,-210 23,-28 39,-72 57,-105 15,-29 -8,-80 -7,-82 67,0 68,-91 76,-133 4,-21 21,-56 47,-54 9,1 6,57 8,65 25,6 181,-47 211,-61 77,-34 117,-116 200,-155 50,3 140,-45 194,-59 57,-15 104,-45 146,-85 65,-62 154,-91 219,-156 22,-22 82,-35 85,-69 3,-38 2,-63 21,-98 35,-5 85,-130 132,-96 31,22 48,52 87,66 26,10 62,-1 84,19 77,70 92,174 220,174 85,10 101,44 189,0 100,-50 199,-71 304,-105 61,-20 41,-75 71,-115 13,-17 27,-27 43,-41 20,-17 24,-40 42,-58 20,-21 15,-68 47,-75 24,-5 42,6 64,3 73,-9 240,-88 302,-32 70,64 129,120 213,169 42,22 82,29 129,19 46,-10 38,6 72,24 51,28 125,-112 195,-81 59,26 200,120 253,67 21,-21 -22,-34 -20,-54 1,-9 24,-37 30,-49 9,-23 -15,-39 1,-61 19,-25 61,-40 87,-57 27,-3 68,-38 90,-55 42,-32 96,-54 142,-82 38,-23 70,-66 22,-93 -71,-41 -12,-126 -22,-185 -5,-29 -30,-40 -30,-74 0,-14 12,-33 15,-49 3,-20 -5,-42 -5,-63 17,-84 113,-47 113,-102 0,-55 9,-108 43,-156 27,-39 56,-72 92,-101 24,-19 14,-52 27,-73 16,-26 78,-122 86,-253 3,-54 61,-67 65,-85 18,-75 45,-140 93,-202 31,-41 31,14 63,-3 49,-25 74,-81 109,-119 53,-19 119,-118 176,-153 33,-20 76,21 107,35 54,24 199,-111 247,-147 116,-87 81,-154 88,-284 21,-25 24,-65 49,-91 75,-80 222,-80 319,-114l0 0c0,-47 67,-82 101,-119 46,-50 50,-126 102,-146 33,-12 51,-64 61,-97 13,-42 80,-65 88,-119 9,-56 8,-27 56,-59 39,-26 54,-67 50,-112l-13 -56c-72,-67 33,-95 33,-165 0,-54 -27,-68 1,-121 12,-23 19,-46 25,-67 -8,-29 -28,-96 -59,-109 -27,-11 -56,-17 -86,-21 -52,-6 -85,-68 -73,-118 0,-48 28,-96 18,-146 -9,-42 -22,-64 -39,-103 -40,-89 57,-168 37,-229 -11,-32 -103,-22 -133,-23 -31,-2 -32,-31 -80,-23 -102,16 -162,-32 -211,-113 -24,-49 45,-130 27,-198 -16,-62 -54,-109 -11,-176 12,-19 -39,-80 -54,-82 -9,-56 -133,-44 -173,-44l-142 42c-41,12 -75,42 -118,33 -70,-15 -127,-59 -196,-74 -45,-10 -61,-58 -105,-72l-92 -48c-25,22 -48,46 -50,75 -4,71 -49,28 -59,58 -11,35 4,42 -45,54 -45,12 -42,41 -78,57 -18,8 -31,6 -45,20 -15,15 -11,49 -37,49 -31,0 -29,-19 -64,-1 -25,13 -48,55 -64,78 -16,22 -31,43 -46,64l-43 -29c-47,-17 -59,-58 -110,-65 -39,-5 -97,-8 -136,-8 -29,0 -56,9 -87,9 -31,0 -44,72 -77,91 -19,10 -56,-12 -63,18 -20,79 57,155 -48,208l-274 -377 -269 209c-63,42 -86,29 -148,-2 -54,-27 -109,-43 -171,-37 -94,0 -189,-27 -279,-45 -93,-18 -130,-43 -202,-100 -48,-39 -100,-32 -158,-20 -59,32 -172,-14 -172,76 0,47 -1,155 -33,178 -30,22 -62,48 -96,63 -64,28 -67,72 -135,103 -104,46 -174,46 -273,-4 -48,-24 -111,-3 -156,-37 -24,-44 -21,-84 -21,-134 0,-60 -50,-47 -93,-63 -146,-54 -121,68 -121,177 0,93 -37,104 -123,119 -66,12 -171,-31 -228,-64 -43,-25 -95,-23 -143,-33 -58,-5 -89,-58 -132,-73 -71,-25 -34,63 -78,63 -24,0 -45,-26 -67,-35 -52,-22 -74,-41 -137,-26 -67,17 -169,65 -194,133 -14,38 -11,82 -50,106 -41,26 -93,42 -142,47l-170 47c-53,14 -119,6 -174,6 -113,0 -206,-39 -313,-55 -57,-9 -156,4 -205,-21 -53,0 -108,-4 -157,-14 -42,-8 -116,26 -143,-19 -22,-36 -76,11 -110,12 -28,1 -45,-6 -72,-13 -62,-16 -120,-50 -183,-63 -92,0 -261,-71 -286,59 -10,52 76,205 24,229l0 0 69 76c18,23 64,8 64,39 0,34 10,94 21,126 5,15 12,79 34,79 18,0 46,-37 57,-15 16,32 -7,75 -7,111 0,37 19,86 11,119 -6,22 -50,90 -1,84 86,-11 49,75 49,134 0,30 35,114 48,142 33,68 103,84 108,176 4,70 34,164 -46,202 -31,0 -45,-12 -74,12 -24,21 -12,68 -42,75 -33,8 -46,7 -39,46 21,121 -102,119 -151,190 -19,27 -7,42 7,59 6,7 -4,40 -8,58 -68,8 -12,139 -74,205 -22,24 -40,65 -64,92l47 99c2,49 31,118 38,173 6,43 8,93 2,136 -4,28 -15,61 -40,77 -42,26 -35,262 -35,312 -8,95 -38,188 -43,282 -1,14 -18,57 -3,63 44,15 106,9 155,21 46,11 189,23 202,79 6,27 -48,62 -66,79 -39,38 -44,81 -57,133 -5,14 -28,104 -15,109 51,23 135,61 190,64 60,3 71,46 101,90 30,44 43,45 -6,81 -60,45 -91,94 -142,146 -24,24 -45,38 -73,56 -30,19 0,49 7,74 1,27 29,61 42,86 10,20 105,-35 153,13 45,45 26,69 48,120 30,66 80,144 142,184 37,24 152,103 152,151 -2,24 6,61 11,84 20,0 55,21 79,24 27,3 58,8 84,14 0,35 -61,65 -76,93 -42,79 95,98 132,125 54,39 97,147 123,206l98 160 0 0z"/>
  <path class="fil3 str0" d="M12993 7930c0,-35 6,-70 6,-105 0,-28 -4,-44 -34,-25 -29,18 -62,-28 -86,-35 -15,-4 -34,-2 -49,-6 -23,-5 -49,-16 -71,-10 9,12 55,27 71,33 26,9 89,34 90,66 2,50 -21,74 28,103 24,14 8,33 24,53 3,4 18,21 24,18 4,-2 -2,-38 -2,-45l-1 -48zm3124 2386c94,-34 149,-56 211,-142l46 -63c24,-33 63,-37 57,-90l-11 -100c-4,-34 47,-69 53,-111 6,-41 15,-105 28,-143 12,-29 11,-77 13,-109 1,-10 1,-73 10,-73l1 -2c42,-6 55,-41 84,-61 50,-34 83,-19 141,-14 31,3 109,40 130,28 7,-53 84,-126 115,-170 38,-54 92,-54 130,-112 15,-8 25,-24 40,-35 32,-22 70,-21 107,-21 28,0 53,2 80,-5 67,-17 144,4 214,4l0 0 -98 -160c-26,-60 -69,-167 -123,-206 -37,-27 -174,-46 -132,-125 15,-29 76,-58 76,-93 -26,-6 -56,-11 -84,-14 -24,-3 -59,-24 -79,-24 -6,-23 -13,-60 -11,-84 0,-49 -115,-127 -152,-151 -62,-40 -112,-117 -142,-184 -23,-51 -4,-76 -48,-120 -48,-48 -143,7 -153,-13 -13,-25 -41,-59 -42,-86 -6,-25 -36,-54 -7,-74 28,-18 49,-32 73,-56 51,-51 83,-101 142,-146 48,-36 36,-38 6,-81 -30,-43 -41,-86 -101,-90 -55,-3 -139,-42 -190,-64 -13,-6 9,-96 15,-109 13,-52 18,-95 57,-133 18,-17 72,-53 66,-79 -13,-56 -156,-68 -202,-79 -48,-12 -111,-5 -155,-21 -15,-5 2,-49 3,-63 5,-94 35,-187 43,-282 0,-50 -6,-285 35,-312 25,-16 36,-49 40,-77 6,-44 4,-93 -2,-136 -7,-54 -37,-124 -38,-173l-47 -99c24,-27 42,-69 64,-92 62,-67 6,-198 74,-205 4,-18 14,-50 8,-58 -14,-17 -25,-32 -7,-59 49,-71 172,-70 151,-190 -7,-39 7,-38 39,-46 30,-7 18,-54 42,-75 29,-24 42,-12 74,-12 79,-37 49,-132 46,-202 -5,-93 -75,-108 -108,-176 -14,-28 -48,-112 -48,-142 0,-59 37,-145 -49,-134 -49,6 -5,-62 1,-84 8,-33 -11,-83 -11,-119 0,-36 23,-79 7,-111 -11,-22 -39,15 -57,15 -21,0 -28,-64 -34,-79 -11,-32 -21,-92 -21,-126 0,-31 -47,-16 -64,-39l-69 -76 0 0c-5,3 -12,4 -21,3 -61,-3 -129,-55 -186,-81l-280 -127c-14,-14 -37,-49 -58,-43 -37,11 -54,19 -78,-11 -31,-39 -94,-59 -144,-71 -61,-15 -53,-39 -82,-87 -19,-31 -77,-113 -111,-128 -37,-17 -53,-10 -73,-53 -17,-39 -21,-66 -63,-77 -39,-10 -87,-22 -88,-72 0,-60 -32,-40 -59,-10 -22,24 -60,-39 -68,-51 -44,-74 -85,20 -153,-30 -36,-27 -78,-75 -81,-121 -3,-48 -117,-108 -155,-131 -30,-18 -44,-64 -81,-71l-135 -25c-38,-38 28,-84 -32,-111 -45,-20 -103,7 -142,-18 -33,-21 -54,-56 -94,-64 -52,-10 -101,-59 -146,-61 -102,-5 -114,-2 -189,-61 -34,-27 -76,-38 -115,-57 -36,-32 -4,-121 -7,-164 -4,-60 -27,-127 -32,-190 -3,-48 -53,-30 -88,-36 -65,-13 -116,-3 -176,18 -85,29 -171,-27 -250,-50 -13,-4 -66,-24 -70,-36 -4,-14 -8,-40 -8,-55 0,-46 -44,-96 -88,-107 -38,-9 -70,-3 -107,-9l0 0 -73 32c-14,9 -26,22 -42,27 -21,7 -44,17 -61,33 -38,10 -59,2 -96,-7 -49,-12 -120,-37 -171,-29 -29,5 -60,15 -89,13 -24,-2 -52,-16 -73,-16l-1 1c0,64 28,144 56,200l16 40 0 0c-34,1 -62,4 -76,14 -32,24 4,46 -19,66 -21,19 -55,0 -81,-18 -56,-37 -28,84 -90,87 -39,2 -94,71 -119,99 -31,35 -17,53 -74,66 -33,8 -24,38 -51,58 -14,11 -37,-7 -51,7 -22,22 -45,45 -67,67 -31,31 -8,103 -20,106 -51,15 -71,2 -95,31 -45,-5 -77,-53 -119,-66 -18,-5 -50,-2 -51,22 -1,24 -7,44 -14,67l-16 25c-17,-13 -32,-18 -48,23 -10,25 23,143 -23,117 -68,-38 -44,4 -90,52 -40,42 23,53 -20,91 -31,26 -78,20 -87,64 -2,8 -45,23 -54,29 -33,22 -49,49 -80,73 -16,13 -39,6 -54,20 -51,48 -5,137 -110,137 -42,0 -33,-23 -63,-30 -34,-8 -75,71 -101,89 -53,37 -128,93 -156,150 -21,43 -52,135 -52,183 0,35 45,57 61,87 37,66 30,95 7,163 -16,46 -23,95 10,133 20,22 57,30 71,59 31,64 11,152 59,208 26,31 49,103 49,143 -8,21 13,109 18,137 10,54 32,127 -37,145 -34,9 -18,52 -31,75 -13,24 -18,56 -7,84 0,21 29,48 2,68 -24,17 -33,7 -52,37 -30,47 -52,45 -109,57 -49,10 -22,43 -43,66l0 0 62 63c19,23 29,23 29,55 0,56 71,43 101,63 43,30 93,59 87,119 -7,59 50,63 70,116 32,59 69,96 110,147 69,86 -46,228 39,297 41,33 57,95 112,115 27,10 145,99 145,97 29,24 53,38 50,82 -1,12 -16,23 -17,38 -3,46 43,134 15,184 -16,29 3,98 13,130 27,87 394,184 310,310 -14,32 -35,111 -7,140 42,45 156,86 139,155 -8,33 -7,67 12,95 14,20 12,74 14,98l10 87c-25,38 -38,76 -74,91 -18,8 -43,9 -78,-1 -38,-10 -147,-41 -161,18 -44,179 -105,7 -176,35 -35,14 -35,86 -50,127l4 9 48 42c10,10 128,35 38,63 -55,17 25,70 36,97 18,40 33,69 73,93 64,40 93,52 101,134 11,126 176,-136 194,-150 48,-38 101,-22 156,-35 63,-15 146,-81 191,-126 55,-22 202,-215 264,-180 30,17 60,52 89,75 26,20 52,1 75,-7 37,-13 109,50 117,3 6,-32 -10,-83 -18,-115 -7,-28 -50,-47 -47,-77 0,-3 47,-7 56,-7 30,-1 44,134 85,152 -3,32 19,57 47,69 16,10 40,25 60,21 0,-2 0,-1 2,-2l1 -1c0,-22 -56,-62 -66,-97 -25,-85 70,-179 142,-206 66,-24 123,5 183,31 51,22 78,36 100,91 27,69 50,86 99,142 40,45 72,115 44,174 -8,42 4,76 -25,108 -29,32 -56,45 -56,91 9,0 55,-48 71,-57 33,-19 103,-97 117,-21 7,37 10,89 5,127 -4,33 -6,45 4,76 6,19 -13,45 -13,68 0,28 10,56 10,87 0,12 -26,106 -31,109l-12 59c14,10 21,23 26,46 11,51 71,17 75,66 8,88 28,155 102,204 40,26 48,43 34,91 -4,13 -2,32 4,54l95 -5c61,17 106,-39 128,50 9,35 -16,60 -16,95 0,66 49,100 71,159 9,24 47,30 46,50 -2,27 -54,27 -33,69 26,42 68,68 100,105 18,21 51,68 81,55 67,-28 81,-3 142,16 61,19 108,-79 134,-125 28,0 58,8 85,42 28,35 98,45 118,85 16,32 -38,56 -36,91 1,22 52,20 68,33 38,30 -51,55 -51,96 0,51 89,17 94,94 1,23 10,66 26,100l0 0c13,25 33,48 56,48 24,0 51,-20 78,-45l37 47c6,12 3,35 14,43 23,18 41,30 50,59 12,36 -21,99 18,115 29,12 92,25 113,3 64,-69 119,10 183,-32 32,-21 62,-19 95,-30 38,-12 47,-33 71,-61l28 -38c3,-2 6,-4 8,-7 16,-17 -29,-69 16,-81 11,-3 21,17 28,23 12,11 30,-23 35,-32 25,-39 39,-122 101,-112 21,3 48,16 66,-4 16,-18 36,-13 57,-11 26,2 51,7 76,11l83 8 8 105c-3,17 10,35 -3,51 -33,41 18,148 51,174 22,18 77,16 105,21 26,5 45,22 68,28 0,17 -6,31 -6,49 0,24 11,40 14,62l0 0z"/>
  <path class="fil3 str0" d="M12993 7930c0,-35 6,-70 6,-105 0,-28 -4,-44 -34,-25 -29,18 -62,-28 -86,-35 -15,-4 -34,-2 -49,-6 -23,-5 -49,-16 -71,-10 9,12 55,27 71,33 26,9 89,34 90,66 2,50 -21,74 28,103 24,14 8,33 24,53 3,4 18,21 24,18 4,-2 -2,-38 -2,-45l-1 -48zm-2515 -2980l62 63c19,23 29,23 29,55 0,56 71,43 101,63 43,30 93,59 87,119 -7,59 50,63 70,116 32,59 69,96 110,147 69,86 -46,228 39,297 41,33 57,95 112,115 27,10 145,99 145,97 29,24 53,38 50,82 -1,12 -16,23 -17,38 -3,46 43,134 15,184 -16,29 3,98 13,130 27,87 394,184 310,310 -14,32 -35,111 -7,140 42,45 156,86 139,155 -8,33 -7,67 12,95 14,20 12,74 14,98l10 87c-25,38 -38,76 -74,91 -18,8 -43,9 -78,-1 -38,-10 -147,-41 -161,18 -44,179 -105,7 -176,35 -35,14 -35,86 -50,127l4 9 48 42c10,10 128,35 38,63 -55,17 25,70 36,97 18,40 33,69 73,93 64,40 93,52 101,134 11,126 176,-136 194,-150 48,-38 101,-22 156,-35 63,-15 146,-81 191,-126 55,-22 202,-215 264,-180 30,17 60,52 89,75 26,20 52,1 75,-7 37,-13 109,50 117,3 6,-32 -10,-83 -18,-115 -7,-28 -50,-47 -47,-77 0,-3 47,-7 56,-7 30,-1 44,134 85,152 -3,32 19,57 47,69 16,10 40,25 60,21 0,-2 0,-1 2,-2l1 -1c0,-22 -56,-62 -66,-97 -25,-85 70,-179 142,-206 66,-24 123,5 183,31 51,22 78,36 100,91 27,69 50,86 99,142 40,45 72,115 44,174 -8,42 4,76 -25,108 -29,32 -56,45 -56,91 9,0 55,-48 71,-57 33,-19 103,-97 117,-21 7,37 10,89 5,127 -4,33 -6,45 4,76 6,19 -13,45 -13,68 0,28 10,56 10,87 0,12 -26,106 -31,109l-12 59c14,10 21,23 26,46 11,51 71,17 75,66 8,88 28,155 102,204 40,26 48,43 34,91 -4,13 -2,32 4,54l95 -5c61,17 106,-39 128,50 9,35 -16,60 -16,95 0,66 49,100 71,159 9,24 47,30 46,50 -2,27 -54,27 -33,69 26,42 68,68 100,105 18,21 51,68 81,55 67,-28 81,-3 142,16 61,19 108,-79 134,-125 28,0 58,8 85,42 28,35 98,45 118,85 16,32 -38,56 -36,91 1,22 52,20 68,33 38,30 -51,55 -51,96 0,51 89,17 94,94 1,23 10,66 26,100l0 0c-48,16 -109,48 -162,48 -98,0 -136,-79 -189,28 -29,58 70,9 14,94 -51,76 81,112 67,174 -20,90 -213,71 -221,138 -3,23 -53,36 -74,53 -28,66 -105,77 -89,-11 14,-79 -69,-36 -104,-82 -20,-26 21,-96 5,-99 -34,-7 -96,-14 -128,-2 -69,26 7,164 -67,209 -14,8 -87,26 -102,24 -67,-9 -58,-54 -60,-107 -1,-19 -115,4 -143,10 -61,14 -49,62 -22,102 34,30 146,74 155,120 11,56 -34,150 -85,175 -34,17 -71,21 -105,41 -58,35 -90,95 -142,131 -46,64 -139,67 -205,101 -50,26 -111,99 -162,107l-133 21c-29,5 -50,27 -78,34 -36,9 -33,-1 -62,-8 -29,-8 -34,43 -47,58l-53 68 0 0 -96 117c-53,53 -108,80 -173,109 -54,24 -85,127 -127,129 -61,3 -171,-240 -210,-288 -63,-79 -113,-103 -104,-207 1,-7 9,-54 2,-56l-1 1c0,27 -121,118 -144,135 -25,19 -25,54 -43,78 -17,23 -72,61 -97,76 -65,48 -152,85 -202,154 -56,77 -5,157 -138,124l-56 -160c-24,-69 32,-105 74,-147 39,-39 69,-89 67,-146 -2,-60 -28,-150 -53,-201 -29,0 -123,35 -154,49 -53,25 -142,3 -191,40 0,105 85,129 144,202 76,93 -68,173 -125,224 -29,26 -114,163 -142,158 -20,45 -59,31 -24,105 12,25 39,81 39,105 -38,0 -184,-86 -203,-121 -34,-62 -18,-209 -112,-180 -23,7 -23,42 -54,27 -22,-10 -23,-44 -47,-56 -32,-17 -70,15 -106,-19 -32,-30 -42,-70 -66,-104 -9,-13 -73,55 -88,65 -50,34 -42,109 -62,160 -44,109 -119,38 -187,58 -32,-2 -55,-21 -90,-21 -29,0 -59,-1 -88,2 -59,6 -128,-17 -180,24 -42,33 -52,23 -99,35 -34,8 -79,65 -114,84 -22,12 -26,42 -49,55 -15,40 -42,117 -48,159 -4,30 11,81 7,100 -47,0 -117,-44 -171,-52 -96,-15 -171,40 -264,40 -61,0 -121,-22 -181,-27 -23,9 -111,-31 -142,-37 -44,-9 -92,0 -136,-7 -112,-16 -161,-97 -251,-144 -58,-30 -126,-42 -181,-73l-142 -30c-11,11 -23,21 -36,31 -52,39 -96,63 -159,32 -50,-25 -73,-93 -140,-76 -51,14 -99,24 -138,39l0 0 -146 -161c8,5 3,2 7,3 -13,-4 -50,-50 -61,-64 -13,-17 -39,-30 -14,-41 57,-24 90,-286 83,-346 -7,-55 -16,-115 -43,-164 -23,-42 -62,-131 -62,-176 -2,-61 -12,-171 35,-216 18,-17 37,-30 54,-47 16,-16 3,-29 31,-46 50,-31 70,-45 28,-98 -55,-70 8,-98 66,-140 21,-15 49,-45 8,-52 -32,-6 -79,-60 -87,-91 13,-61 34,-125 34,-188 0,-51 -30,-68 -38,-109 -2,-8 21,-50 21,-72 3,-67 14,-77 56,-124 21,-23 15,-102 26,-132 -18,-103 -80,-136 -153,-195l-72 -58c-12,-10 114,-96 134,-109 65,-41 17,-39 -10,-76 -19,-24 5,-61 16,-86 16,-37 -15,-69 12,-112 26,-41 82,-28 125,-48 34,-13 44,-7 69,-38 29,-37 -14,-127 -38,-160 -26,-36 -50,-63 -61,-107 -18,-77 -49,-96 -91,-151 -40,-53 -50,-121 -60,-186 -22,-54 -32,-58 -68,-100 -43,-49 -113,-123 -72,-193 12,-20 11,-36 4,-55 -16,-41 40,-61 -2,-110 -85,-100 -288,-34 -397,-41 -25,-2 -39,-15 -61,-21 -12,-3 -31,5 -42,7 -26,7 -62,4 -86,-11 -37,-24 8,-35 25,-48 -3,-15 -6,-26 -11,-40 -14,-39 -10,-76 16,-111 10,-14 39,-34 54,-37 22,-5 44,-2 65,-14 16,-35 6,-74 25,-111 26,-49 84,-75 75,-136 -10,-73 -6,-60 50,-45 106,29 121,-28 201,-74 36,-21 70,-56 110,-66l147 -37c68,6 131,-28 196,-43 65,-15 232,-8 301,4 57,10 -32,142 19,126 43,-14 105,27 132,-14 18,-28 -1,-86 38,-107 19,-11 -18,-130 -7,-168 31,-103 105,-62 183,-94 62,-3 137,-69 198,-69 0,-46 -45,-144 -58,-194 -27,0 -63,25 -88,17 -94,-30 147,-231 147,-278 -34,0 -54,-16 -68,-46 -10,-22 -13,-48 -43,-38 -9,3 -44,1 -45,2 -7,5 -9,65 -31,49 -23,-17 -175,-169 -177,-199l0 0c46,-9 59,-32 98,-52 42,-28 83,-89 130,-103 50,-14 84,-58 133,-51 32,4 81,-12 113,-19 43,-8 83,-42 125,-58 47,-18 118,3 166,12 23,0 38,-4 57,-7 18,-64 178,-1 226,-32 43,-27 65,-168 65,-217 0,-80 76,-81 110,-136 47,-71 -7,-118 -59,-153 -47,-31 12,-110 31,-139 65,-98 212,-91 176,-238 -4,-16 75,-32 91,-40 40,-20 -8,-64 64,-54 54,8 98,4 147,-17 22,-31 61,23 93,-3 26,-21 25,-68 64,-55 28,10 44,10 73,17 19,4 81,-45 88,-62 29,-61 50,-14 90,7 37,20 129,42 136,82 0,14 21,66 8,67 -17,2 -33,-33 -50,-18 -30,27 6,65 19,91 14,29 -101,89 -131,89 -74,0 -68,62 -68,111 0,25 12,178 24,179 37,3 81,7 117,14 113,22 157,-102 212,-175 40,-58 78,-138 156,-128 36,5 156,32 179,7l0 0z"/>
  <path class="fil3 str0" d="M16117 10316c94,-34 149,-56 211,-142l46 -63c24,-33 63,-37 57,-90l-11 -100c-4,-34 47,-69 53,-111 6,-41 15,-105 28,-143 12,-29 11,-77 13,-109 1,-10 1,-73 10,-73l1 -2c42,-6 55,-41 84,-61 50,-34 83,-19 141,-14 31,3 109,40 130,28 7,-53 84,-126 115,-170 38,-54 92,-54 130,-112 15,-8 25,-24 40,-35 32,-22 70,-21 107,-21 28,0 53,2 80,-5 67,-17 144,4 214,4l0 0 76 67c36,26 69,11 105,29 55,28 136,52 201,35 55,-14 90,-42 150,-42 43,0 154,26 183,-7 50,-57 83,-137 104,-210 23,-28 39,-72 57,-105 15,-29 -8,-80 -7,-82 67,0 68,-91 76,-133 4,-21 21,-56 47,-54 9,1 6,57 8,65 25,6 181,-47 211,-61 77,-34 117,-116 200,-155 50,3 140,-45 194,-59 57,-15 104,-45 146,-85 65,-62 154,-91 219,-156 22,-22 82,-35 85,-69 3,-38 2,-63 21,-98 35,-5 85,-130 132,-96 31,22 48,52 87,66 26,10 62,-1 84,19 77,70 92,174 220,174 85,10 101,44 189,0 100,-50 199,-71 304,-105 61,-20 41,-75 71,-115 13,-17 27,-27 43,-41 20,-17 24,-40 42,-58 20,-21 15,-68 47,-75 24,-5 42,6 64,3 73,-9 240,-88 302,-32 70,64 129,120 213,169 42,22 82,29 129,19 46,-10 38,6 72,24 51,28 125,-112 195,-81 59,26 200,120 253,67 21,-21 -22,-34 -20,-54 1,-9 24,-37 30,-49 9,-23 -15,-39 1,-61 19,-25 61,-40 87,-57 27,-3 68,-38 90,-55 42,-32 96,-54 142,-82 38,-23 70,-66 22,-93 -71,-41 -12,-126 -22,-185 -5,-29 -30,-40 -30,-74 0,-14 12,-33 15,-49 3,-20 -5,-42 -5,-63 17,-84 113,-47 113,-102 0,-55 9,-108 43,-156 27,-39 56,-72 92,-101 24,-19 14,-52 27,-73 16,-26 78,-122 86,-253 3,-54 61,-67 65,-85 18,-75 45,-140 93,-202 31,-41 31,14 63,-3 49,-25 74,-81 109,-119 53,-19 119,-118 176,-153 33,-20 76,21 107,35 54,24 199,-111 247,-147 116,-87 81,-154 88,-284 21,-25 24,-65 49,-91 75,-80 222,-80 319,-114l0 0c13,4 36,38 56,46l91 35c38,11 63,17 92,44 14,13 43,35 60,40 18,5 33,-24 54,-12 43,24 64,38 114,49 38,9 51,4 72,42 35,63 64,42 131,42 49,0 86,49 138,49l110 -7 0 0 70 50c32,24 69,28 104,47 20,11 23,37 27,58 3,15 2,31 8,45 7,15 19,39 21,54 14,37 62,121 96,139 14,7 45,9 55,20 23,25 12,53 43,81 19,17 39,41 61,54 19,11 34,13 55,20 13,4 29,14 46,26l0 0 -138 84c-57,31 -119,68 -151,120 -34,56 -69,-30 -105,-11 -54,29 -28,169 -37,219 -14,80 -49,154 -69,232 4,32 37,27 37,60 0,75 -5,85 -39,151l-58 111c-12,22 -16,49 -20,74 -6,40 -42,68 -53,108 -13,48 -16,88 -21,138 7,73 86,198 59,258 -14,32 -50,66 -86,37 -83,-67 -70,26 -161,-17 -30,-14 -107,-28 -62,23 47,53 88,148 61,219 -12,31 21,58 11,92 -18,63 7,34 28,81 25,28 27,74 25,111 -1,26 -4,61 -40,60 -59,-2 -51,24 -98,48 -42,21 -48,-45 -85,-45 -17,51 -81,66 -133,69 -98,5 -24,88 -96,126 -58,20 -103,23 -161,33 -46,8 -153,133 -203,164 -74,47 -61,71 -110,132 -50,63 -169,152 -238,197 -92,60 4,142 4,214 -3,39 6,59 -32,81 -23,14 -36,-5 -47,30 -7,24 6,95 14,121 14,43 -59,113 -60,165l-4 238c14,65 44,112 44,182 -14,5 -82,-16 -110,-15 -87,3 -112,-75 -171,-78 -19,-1 -43,-24 -52,-21 -31,13 -94,77 -132,32 -23,-27 -60,-74 -71,-108 -23,-73 0,-75 -81,-92 -56,-12 -87,-63 -157,-63 -34,6 -75,-23 -96,21 -10,21 -13,66 -20,91 -12,51 -66,90 -66,147 0,50 -5,82 -16,130 -6,25 -7,68 -7,93 0,19 -35,110 -47,128 -20,29 -87,43 -117,67 -6,2 -36,4 -37,9 -11,3 -19,81 -25,95 -24,59 -46,101 -61,165 -12,49 -7,68 -62,82 -66,16 -132,35 -183,-18l-62 -63c-8,-8 -59,-18 -59,-6l16 41 43 200c12,54 42,144 42,196 10,57 41,89 77,128 33,35 102,151 55,199 -48,48 -21,109 -119,109 -156,0 -81,174 -123,184 -37,9 -50,58 -82,66 -40,10 -75,-26 -75,32 4,131 351,315 85,439 -52,24 -82,-7 -126,41 -57,61 -141,80 -202,129 -15,12 -74,38 -77,54 -2,8 16,84 16,105l24 169 0 0c-9,2 -16,6 -22,12 -34,31 -25,37 -63,13 -37,-23 -69,24 -107,4 -21,-11 -31,-15 -56,-17 -78,-4 -107,34 -173,-14 -82,-21 -117,-22 -199,5 -47,15 -135,79 -184,63 -141,-44 -163,70 -256,148 -9,8 -68,3 -86,10 -61,3 -116,83 -161,84l-142 5c-116,4 -176,-59 -250,-133 -28,-28 -117,-19 -151,-6 -49,19 -90,-7 -122,4 -26,-9 -157,-124 -164,-146 -67,0 -133,36 -198,-1 -56,-32 -87,53 -117,91 -34,0 -66,10 -92,-19 -25,-28 -76,-2 -102,15 -23,23 -28,30 -37,58 -8,0 -21,-4 -30,-7 0,-36 -11,-52 -36,-76 -45,-40 -65,5 -91,26 -16,13 -45,-23 -57,-26l0 0c0,-26 19,-84 19,-110 0,-22 1,-57 -10,-75 0,-61 56,-107 44,-166 -11,-55 -71,-78 -74,-143 -2,-55 -31,-57 -72,-85 -39,-26 -78,-98 -120,-112 -75,-25 -153,36 -216,8 -37,-16 -32,-70 -91,-80 -55,-9 -95,8 -117,-48 -51,-102 -268,-45 -358,-81 -41,-16 -74,-49 -112,-63 -61,-23 -86,18 -114,-72 -12,-39 -20,-15 -51,-30 -30,-15 -52,-35 -86,-49 -38,-38 -51,-47 -68,-98 -12,-35 -42,-10 -79,-7 -115,6 -175,-14 -251,-99 -51,-57 -110,-88 -174,-126 -80,-48 -37,-135 -148,-179 -55,0 -74,38 -112,38l-29 -174c-14,-85 -37,-168 -37,-256 0,-53 9,-135 -18,-180 -30,-52 -91,-110 -104,-170l-84 -188 0 0z"/>
  <path class="fil3 str0" d="M21478 12765c42,-12 108,7 142,9l240 10c66,0 73,-7 124,28 13,9 65,-1 82,-4 65,-12 66,41 135,5 107,-56 198,-92 292,4l88 89c34,35 46,82 77,119 16,11 46,57 64,56 45,-3 92,-76 149,-84 86,-13 153,113 222,137 53,18 102,4 156,4 49,0 120,14 163,-7 52,-41 102,-56 166,-59 65,-3 162,-134 200,-184 27,-35 45,-80 48,-125 4,-57 31,-107 38,-161 25,-61 83,-136 135,-174 46,-34 90,-34 143,-45 44,-9 77,-36 126,-40 29,-2 59,-3 84,-19 99,-64 123,-27 193,57 29,10 54,55 65,58 100,-81 228,-208 369,-167 168,50 274,110 399,234 51,52 115,164 146,230 23,48 88,101 120,147 27,38 52,57 102,49 28,-5 92,-47 108,-42 38,13 111,-30 153,-45 6,-2 -19,-38 -6,-61 12,-20 27,-14 44,-20 0,-114 104,-28 165,-119 25,-29 76,-18 57,-75 -16,-48 9,-130 42,-159 39,-34 79,-99 128,-119 28,-11 76,24 93,-14 27,-62 -4,-82 -20,-132 -5,-17 15,-43 15,-64 0,-46 15,-37 41,-72 11,-37 34,-62 51,-91 3,0 2,0 4,-3 7,-1 15,-8 22,-3 0,16 8,17 10,26l2 1c13,3 21,5 32,1 6,-46 62,-149 88,-188 19,-29 70,-54 101,-36 46,27 119,-12 119,-69 0,-49 -27,-188 -6,-222 6,-38 48,-25 50,-55 1,-16 5,-47 21,-53 31,-11 22,-8 14,-32 -13,-38 7,-90 32,-118 24,-26 37,-20 51,-58 14,-39 39,-78 50,-115 13,-42 8,-102 8,-147 -7,-46 28,-109 61,-142 44,-44 55,-168 55,-232 0,-110 25,-179 66,-279 8,-33 45,-147 87,-147 56,0 49,-12 80,-69 87,-161 296,-268 331,-456 21,-51 68,-123 113,-153 13,-9 44,-22 52,-4 10,23 19,17 40,12l1 -1c0,-16 39,-122 66,-121l0 0c-10,-22 -60,-79 -80,-97 -28,-26 -63,-61 -95,-82 -27,-18 -58,-31 -86,-48 -92,-54 -158,-126 -260,-165 -53,0 -128,9 -176,-15 -45,-23 -110,-66 -101,15l5 46 0 2c-33,0 -161,-127 -167,-158 -19,-98 -102,-134 -137,-221 -51,-76 -117,-150 -165,-228l-136 -221c-29,-39 -40,-79 -51,-124 -12,-50 -36,-39 -64,-70 -18,-19 -32,-63 -38,-89 -13,-49 -10,-47 -53,-75 -22,-14 -24,-30 -35,-53 -22,-44 -47,-113 -47,-163 0,-58 -9,-113 12,-167 17,-41 53,-69 47,-109 -4,-30 -17,-61 -19,-92 -2,-50 -22,-100 -11,-150 14,-67 12,-123 10,-189 0,-93 32,-199 96,-263 10,-10 47,-43 47,-56 0,-21 -35,-37 -51,-49 -36,-24 -83,-48 -113,-13 -64,75 -88,40 -157,2 -30,-19 -117,-94 -146,-27 -32,73 -51,45 -108,15 -44,-23 -30,-38 -49,-72 -16,-28 -64,-53 -97,-47 -33,6 -162,58 -181,44 -25,-19 -49,-56 -72,-80 -26,-20 -69,-60 -107,-87l0 0 -138 84c-57,31 -119,68 -151,120 -34,56 -69,-30 -105,-11 -54,29 -28,169 -37,219 -14,80 -49,154 -69,232 4,32 37,27 37,60 0,75 -5,85 -39,151l-58 111c-12,22 -16,49 -20,74 -6,40 -42,68 -53,108 -13,48 -16,88 -21,138 7,73 86,198 59,258 -14,32 -50,66 -86,37 -83,-67 -70,26 -161,-17 -30,-14 -107,-28 -62,23 47,53 88,148 61,219 -12,31 21,58 11,92 -18,63 7,34 28,81 25,28 27,74 25,111 -1,26 -4,61 -40,60 -59,-2 -51,24 -98,48 -42,21 -48,-45 -85,-45 -17,51 -81,66 -133,69 -98,5 -24,88 -96,126 -58,20 -103,23 -161,33 -46,8 -153,133 -203,164 -74,47 -61,71 -110,132 -50,63 -169,152 -238,197 -92,60 4,142 4,214 -3,39 6,59 -32,81 -23,14 -36,-5 -47,30 -7,24 6,95 14,121 14,43 -59,113 -60,165l-4 238c14,65 44,112 44,182 -14,5 -82,-16 -110,-15 -87,3 -112,-75 -171,-78 -19,-1 -43,-24 -52,-21 -31,13 -94,77 -132,32 -23,-27 -60,-74 -71,-108 -23,-73 0,-75 -81,-92 -56,-12 -87,-63 -157,-63 -34,6 -75,-23 -96,21 -10,21 -13,66 -20,91 -12,51 -66,90 -66,147 0,50 -5,82 -16,130 -6,25 -7,68 -7,93 0,19 -35,110 -47,128 -20,29 -87,43 -117,67 -6,2 -36,4 -37,9 -11,3 -19,81 -25,95 -24,59 -46,101 -61,165 -12,49 -7,68 -62,82 -66,16 -132,35 -183,-18l-62 -63c-8,-8 -59,-18 -59,-6l16 41 43 200c12,54 42,144 42,196 10,57 41,89 77,128 33,35 102,151 55,199 -48,48 -21,109 -119,109 -156,0 -81,174 -123,184 -37,9 -50,58 -82,66 -40,10 -75,-26 -75,32 4,131 351,315 85,439 -52,24 -82,-7 -126,41 -57,61 -141,80 -202,129 -15,12 -74,38 -77,54 -2,8 16,84 16,105l24 169 0 0z"/>
  <path class="fil3 str0" d="M12471 11348l53 -68c14,-15 18,-65 47,-58 29,8 27,17 62,8 28,-7 49,-29 78,-34l133 -21c51,-8 112,-81 162,-107 66,-34 158,-37 205,-101 52,-36 84,-96 142,-131 34,-21 71,-24 105,-41 51,-26 95,-119 85,-175 -9,-46 -121,-90 -155,-120 -27,-40 -39,-87 22,-102 28,-7 143,-30 143,-10 2,54 -7,98 60,107 16,2 89,-16 102,-24 74,-45 -2,-183 67,-209 32,-12 95,-5 128,2 17,3 -25,73 -5,99 35,46 118,3 104,82 -15,88 62,78 89,11 21,-17 71,-30 74,-53 8,-68 201,-48 221,-138 14,-62 -118,-98 -67,-174 56,-85 -43,-36 -14,-94 53,-107 91,-28 189,-28 53,0 115,-32 162,-48l0 0c13,25 33,48 56,48 24,0 51,-20 78,-45l37 47c6,12 3,35 14,43 23,18 41,30 50,59 12,36 -21,99 18,115 29,12 92,25 113,3 64,-69 119,10 183,-32 32,-21 62,-19 95,-30 38,-12 47,-33 71,-61l28 -38c3,-2 6,-4 8,-7 16,-17 -29,-69 16,-81 11,-3 21,17 28,23 12,11 30,-23 35,-32 25,-39 39,-122 101,-112 21,3 48,16 66,-4 16,-18 36,-13 57,-11 26,2 51,7 76,11l83 8 8 105c-3,17 10,35 -3,51 -33,41 18,148 51,174 22,18 77,16 105,21 26,5 45,22 68,28 0,17 -6,31 -6,49 0,24 11,40 14,62l0 0 84 188c13,60 74,118 104,170 27,45 18,128 18,180 0,88 23,171 37,256l29 174c38,0 57,-38 112,-38 111,44 68,131 148,179 64,38 123,69 174,126 76,85 136,105 251,99 37,-2 68,-28 79,7 17,50 30,60 68,98 33,14 55,34 86,49 31,15 39,-9 51,30 28,90 53,49 114,72 38,14 71,47 112,63 90,36 306,-21 358,81 22,55 63,38 117,48 59,10 54,64 91,80 63,28 141,-33 216,-8 42,14 81,86 120,112 41,28 69,30 72,85 3,65 62,88 74,143 12,59 -44,105 -44,166 11,18 10,53 10,75 0,26 -19,84 -19,110l0 0c-29,-119 -363,-115 -445,-59 -48,33 -115,-12 -178,16 -55,25 -146,83 -203,91 -24,-72 -187,-79 -249,-106 -90,-40 -226,-5 -313,15 -64,32 -42,85 -125,96 -73,10 -160,11 -230,32 -160,48 -341,5 -499,44 -124,0 -236,3 -355,-35 -95,-30 -205,-57 -271,36 -4,1 -7,3 -11,3 -7,6 -17,11 -25,15 -58,58 -90,147 -129,218 -39,70 -103,133 -146,202 -23,36 -70,100 -78,139 -29,87 -47,46 -95,91 -60,57 -55,44 -127,62 -120,29 -222,58 -273,187 -15,37 -69,194 -96,214 -33,24 -65,11 -103,17 -99,0 -135,77 -227,93 -77,13 -169,35 -244,11 -41,-13 -106,-45 -147,-47 -116,-20 -222,-63 -342,-63 -56,0 -283,-8 -304,59 -1,0 -2,1 -3,1l-5 9c-47,79 -68,41 -137,77 -32,17 -140,123 -165,115 -32,-11 -35,-29 -81,-21 -60,10 -105,89 -174,71 -29,-8 -46,-16 -74,7 -31,25 -72,62 -107,79 -52,32 -92,26 -138,48 -29,14 -81,75 -110,71 0,-1 -6,-6 -7,-7 -6,-22 -8,-23 -30,-20 -10,21 -67,57 -87,80 -38,45 -72,84 -102,134 -41,68 -137,247 -139,325 -5,9 -7,57 -16,61l0 0c-27,-37 -67,-79 -100,-109 -32,-30 -46,-60 -97,-53 -37,5 -69,58 -99,53 -40,-6 -31,-65 -23,-92 5,-16 -14,-27 -23,-39 -33,-66 -33,-106 -47,-177 -9,-50 -26,-153 -63,-190 -33,-33 -27,-68 -44,-107 -19,-44 -69,-87 -105,-117 -4,-20 -46,-50 -57,-73 -12,-27 -18,-52 -24,-79 -13,-58 -50,-103 -61,-165 -10,-58 -27,-37 -60,-75 -18,-21 -5,-28 -38,-40 -30,-11 -47,0 -78,-3 -15,6 -55,58 -60,49l-30 -53c-103,0 -151,133 -217,185 -20,16 -59,-16 -83,-18 -54,-3 -71,17 -121,-21 -68,-51 -106,23 -168,-8 -4,-34 -36,-160 -29,-185 20,-65 114,-40 159,-15 49,27 56,21 108,31 54,27 84,129 150,47 42,-53 89,-103 116,-165 24,-53 64,-56 103,-98 43,-46 74,-153 74,-215 95,71 343,-58 406,-143 31,-21 64,-76 95,-104 30,-27 63,-47 51,-92 -8,-32 28,-54 28,-77 -9,0 -19,-6 -28,-6 -7,-29 22,-166 37,-188 41,-59 59,-115 91,-176 28,-54 21,-53 -10,-94 -6,-24 -62,-44 -79,-70 -18,-28 -15,-51 -24,-82 -26,-86 -77,-32 -39,-145 15,-46 42,-87 72,-125 14,-18 35,-10 54,-22 18,-12 10,-51 29,-71 19,-20 69,-31 96,-41 68,-26 23,-26 70,11 38,29 53,51 101,70 75,30 56,13 80,96 21,71 106,32 146,80 113,114 107,15 205,-9 89,-22 111,-148 140,-223 16,-42 23,-109 52,-141 20,-21 69,-1 62,-27l-58 -227c0,-31 -42,-67 -31,-91 7,-15 58,-40 58,-50 -15,-5 -39,-22 -54,-31 -22,-13 -13,-23 -18,-43 -10,-38 -105,-94 -138,-119l0 0z"/>
  <path class="fil3 str0" d="M7191 11915c-76,28 -126,73 -141,195 -8,68 -5,133 21,196 19,44 54,100 34,150 -5,14 -11,27 -16,41l0 0c0,31 -139,113 -167,136 -27,23 -78,76 -115,76 -48,0 -17,-12 -40,37 -30,65 -61,14 -84,37 -53,53 -37,14 -37,89 -12,160 154,308 199,455 13,44 -3,66 30,107 19,24 118,81 150,91 1,0 32,-46 58,-56 44,-17 20,32 41,32 0,-65 182,24 207,52 40,5 67,107 82,141 39,87 65,4 116,4 93,0 86,196 53,249 -17,28 -38,51 -72,51 -92,0 9,109 25,109 83,0 211,-146 304,-52 42,42 -8,79 -37,108 -21,21 -44,27 -73,37 -33,12 -45,42 -71,58 -29,47 -108,89 -162,71 -36,-12 -68,-82 -58,-118 9,-34 35,-39 18,-78 -16,-35 -63,-71 -86,-106 -8,-13 15,-32 15,-49 0,-2 -41,-6 -54,-10l0 -4c7,-2 25,-39 12,-44 -1,-1 -38,35 -60,35 -16,0 -49,30 -49,48 110,0 126,135 170,212 27,46 31,99 58,145l107 186c25,52 65,134 74,189 20,116 142,119 192,213 45,85 51,202 100,280 15,20 32,69 57,74 48,9 95,8 134,39 59,48 101,145 123,216 24,78 80,153 117,228 29,41 95,116 106,161 15,-4 13,-32 44,-32 102,0 146,81 262,30 40,-18 96,-38 140,-38 56,0 69,22 115,45 49,37 108,70 151,110 55,51 116,122 157,182 30,44 89,180 139,197 20,22 50,84 79,61 27,-22 5,-67 63,-49 61,19 85,99 151,116 49,12 89,53 142,53 32,0 66,-56 84,-49 49,19 62,53 119,49 62,-3 69,51 109,79 40,22 118,120 118,164l20 70c4,0 4,-4 7,-4 15,-47 66,-51 110,-58 75,-12 178,-84 247,-122 48,-27 189,-112 237,-100 52,10 80,20 121,-22 17,-18 147,-125 107,-140 -52,-20 -73,-36 -63,-95 5,-30 43,-43 33,-67 -6,-13 -40,-34 -33,-53 2,-5 29,-35 20,-38 -34,-12 -10,-24 -10,-51l0 -70c-4,1 -21,17 -28,13 -13,-7 -2,-48 4,-57 0,-61 102,-115 152,-126 34,-7 123,-19 114,32 -9,47 54,29 90,56 19,14 30,33 29,50l0 0 91 -3 0 0c0,-44 2,-103 16,-144 17,-52 15,-125 38,-172 21,-55 49,-143 102,-170 62,-31 93,-190 123,-257 15,-34 44,-89 78,-105 14,-6 28,-4 39,-9l0 0c-27,-37 -67,-79 -100,-109 -32,-30 -46,-60 -97,-53 -37,5 -69,58 -99,53 -40,-6 -31,-65 -23,-92 5,-16 -14,-27 -23,-39 -33,-66 -33,-106 -47,-177 -9,-50 -26,-153 -63,-190 -33,-33 -27,-68 -44,-107 -19,-44 -69,-87 -105,-117 -4,-20 -46,-50 -57,-73 -12,-27 -18,-52 -24,-79 -13,-58 -50,-103 -61,-165 -10,-58 -27,-37 -60,-75 -18,-21 -5,-28 -38,-40 -30,-11 -47,0 -78,-3 -15,6 -55,58 -60,49l-30 -53c-103,0 -151,133 -217,185 -20,16 -59,-16 -83,-18 -54,-3 -71,17 -121,-21 -68,-51 -106,23 -168,-8 -4,-34 -36,-160 -29,-185 20,-65 114,-40 159,-15 49,27 56,21 108,31 54,27 84,129 150,47 42,-53 89,-103 116,-165 24,-53 64,-56 103,-98 43,-46 74,-153 74,-215 95,71 343,-58 406,-143 31,-21 64,-76 95,-104 30,-27 63,-47 51,-92 -8,-32 28,-54 28,-77 -9,0 -19,-6 -28,-6 -7,-29 22,-166 37,-188 41,-59 59,-115 91,-176 28,-54 21,-53 -10,-94 -6,-24 -62,-44 -79,-70 -18,-28 -15,-51 -24,-82 -26,-86 -77,-32 -39,-145 15,-46 42,-87 72,-125 14,-18 35,-10 54,-22 18,-12 10,-51 29,-71 19,-20 69,-31 96,-41 68,-26 23,-26 70,11 38,29 53,51 101,70 75,30 56,13 80,96 21,71 106,32 146,80 113,114 107,15 205,-9 89,-22 111,-148 140,-223 16,-42 23,-109 52,-141 20,-21 69,-1 62,-27l-58 -227c0,-31 -42,-67 -31,-91 7,-15 58,-40 58,-50 -15,-5 -39,-22 -54,-31 -22,-13 -13,-23 -18,-43 -10,-38 -105,-94 -138,-119l0 0 -96 117c-53,53 -108,80 -173,109 -54,24 -85,127 -127,129 -61,3 -171,-240 -210,-288 -63,-79 -113,-103 -104,-207 1,-7 9,-54 2,-56l-1 1c0,27 -121,118 -144,135 -25,19 -25,54 -43,78 -17,23 -72,61 -97,76 -65,48 -152,85 -202,154 -56,77 -5,157 -138,124l-56 -160c-24,-69 32,-105 74,-147 39,-39 69,-89 67,-146 -2,-60 -28,-150 -53,-201 -29,0 -123,35 -154,49 -53,25 -142,3 -191,40 0,105 85,129 144,202 76,93 -68,173 -125,224 -29,26 -114,163 -142,158 -20,45 -59,31 -24,105 12,25 39,81 39,105 -38,0 -184,-86 -203,-121 -34,-62 -18,-209 -112,-180 -23,7 -23,42 -54,27 -22,-10 -23,-44 -47,-56 -32,-17 -70,15 -106,-19 -32,-30 -42,-70 -66,-104 -9,-13 -73,55 -88,65 -50,34 -42,109 -62,160 -44,109 -119,38 -187,58 -32,-2 -55,-21 -90,-21 -29,0 -59,-1 -88,2 -59,6 -128,-17 -180,24 -42,33 -52,23 -99,35 -34,8 -79,65 -114,84 -22,12 -26,42 -49,55 -15,40 -42,117 -48,159 -4,30 11,81 7,100 -47,0 -117,-44 -171,-52 -96,-15 -171,40 -264,40 -61,0 -121,-22 -181,-27 -23,9 -111,-31 -142,-37 -44,-9 -92,0 -136,-7 -112,-16 -161,-97 -251,-144 -58,-30 -126,-42 -181,-73l-142 -30c-11,11 -23,21 -36,31 -52,39 -96,63 -159,32 -50,-25 -73,-93 -140,-76 -51,14 -99,24 -138,39l0 0z"/>
  <path class="fil3 str0" d="M7191 11915l-146 -161c8,5 3,2 7,3 -13,-4 -50,-50 -61,-64 -13,-17 -39,-30 -14,-41 57,-24 90,-286 83,-346 -7,-55 -16,-115 -43,-164 -23,-42 -62,-131 -62,-176 -2,-61 -12,-171 35,-216 18,-17 37,-30 54,-47 16,-16 3,-29 31,-46 50,-31 70,-45 28,-98 -55,-70 8,-98 66,-140 21,-15 49,-45 8,-52 -32,-6 -79,-60 -87,-91 13,-61 34,-125 34,-188 0,-51 -30,-68 -38,-109 -2,-8 21,-50 21,-72 3,-67 14,-77 56,-124 21,-23 15,-102 26,-132 -18,-103 -80,-136 -153,-195l-72 -58c-12,-10 114,-96 134,-109 65,-41 17,-39 -10,-76 -19,-24 5,-61 16,-86 16,-37 -15,-69 12,-112 26,-41 82,-28 125,-48 34,-13 44,-7 69,-38 29,-37 -14,-127 -38,-160 -26,-36 -50,-63 -61,-107 -18,-77 -49,-96 -91,-151 -40,-53 -50,-121 -60,-186 -22,-54 -32,-58 -68,-100 -43,-49 -113,-123 -72,-193 12,-20 11,-36 4,-55 -16,-41 40,-61 -2,-110 -85,-100 -288,-34 -397,-41 -25,-2 -39,-15 -61,-21 -12,-3 -31,5 -42,7 -26,7 -62,4 -86,-11 -37,-24 8,-35 25,-48 -3,-15 -6,-26 -11,-40 -14,-39 -10,-76 16,-111 10,-14 39,-34 54,-37 22,-5 44,-2 65,-14 16,-35 6,-74 25,-111 26,-49 84,-75 75,-136 -10,-73 -6,-60 50,-45 106,29 121,-28 201,-74 36,-21 70,-56 110,-66l147 -37c68,6 131,-28 196,-43 65,-15 232,-8 301,4 57,10 -32,142 19,126 43,-14 105,27 132,-14 18,-28 -1,-86 38,-107 19,-11 -18,-130 -7,-168 31,-103 105,-62 183,-94 62,-3 137,-69 198,-69 0,-46 -45,-144 -58,-194 -27,0 -63,25 -88,17 -94,-30 147,-231 147,-278 -34,0 -54,-16 -68,-46 -10,-22 -13,-48 -43,-38 -9,3 -44,1 -45,2 -7,5 -9,65 -31,49 -23,-17 -175,-169 -177,-199l0 0c-22,5 -33,-48 -50,-61 -19,-14 -35,-6 -53,-26 -7,-8 -78,18 -98,18 -58,0 -78,-63 -122,-81 -81,-35 -153,5 -227,-61 -29,-26 -41,-50 -76,-71 -30,-18 -88,-35 -109,-63 -21,-25 -39,-54 -41,-88 -1,-27 -14,-133 -33,-145 -41,-25 -104,9 -141,-28 -63,-24 -42,-53 -118,-35 -44,11 -86,3 -130,3 0,18 38,47 38,69 -52,17 -86,39 -119,90 -39,58 64,131 -70,131 -42,0 -26,-59 -61,-71 -35,-11 -108,1 -130,-19 -31,-14 -69,-37 -102,-33 -18,3 -130,64 -141,42 -10,0 -1,-75 -1,-87 0,-68 5,-106 -44,-163 -25,-29 -116,-192 -149,-192 -27,0 -95,73 -104,38 -18,-69 -44,5 -100,-10 -40,-31 -53,-41 -97,-12 -22,15 -72,18 -96,6 -50,-25 -33,-3 -68,8 -27,9 -142,15 -142,-24 0,-57 -150,-68 -194,-79 -64,-16 -53,-26 -25,-77 30,-55 53,-93 69,-155 15,-60 -3,-94 -3,-149 -40,0 -83,31 -131,29 -96,-4 -156,-70 -234,-108 -38,-19 -61,-38 -103,-45 -37,-6 -124,-24 -158,-39l0 0c-3,50 -35,74 -82,129 -33,39 -102,172 -6,172l1 1c0,28 1,47 -18,86l-43 90c10,33 -10,86 -43,100 -41,17 -31,-7 -41,49 -10,60 -9,120 -9,182 0,54 -41,56 -52,91 -10,32 0,98 0,134 0,21 -107,11 -142,21 0,3 -39,36 -42,36 -2,8 -39,-15 -47,-16l-46 -6c0,-2 0,-1 -2,-2 0,-21 -13,-73 -37,-77 0,-2 -68,-23 -81,-38 -33,-37 -52,-10 -85,-4 -2,8 -39,63 -51,45 -40,0 -46,45 -38,74 3,12 26,87 15,90 -2,8 -32,20 -39,21 -14,4 -35,11 -48,4 -12,-6 -23,-7 -33,5 -20,29 -105,73 -109,13 -1,-15 -66,-32 -81,-32 -88,0 -99,76 -197,70 -43,-2 -40,16 -71,37 -61,42 4,65 18,130 3,15 -23,194 -32,199 -37,19 -21,34 -41,75 -10,21 -60,71 -61,84 4,37 8,97 -8,129 -12,23 -62,72 -65,93 -10,5 -14,66 -17,78 -27,7 -81,115 -102,143 -15,21 -145,117 -168,121 -1,6 -20,15 -24,22 -8,12 2,29 -10,41 -12,12 -43,15 -47,32 -16,11 -76,118 -101,91 -19,-20 -50,7 -75,27 -13,10 2,67 -10,86 -23,36 -27,23 -39,69l-41 153c-12,47 -33,32 -33,86 0,28 -25,45 -23,74 4,64 63,50 -8,91 -25,14 43,86 -36,86 -20,8 -28,60 -34,81 -18,56 -68,38 -68,100 0,58 -64,28 -88,53 53,66 20,102 -14,167 -7,13 -34,14 -34,31 0,16 39,38 24,49 -13,11 -51,21 -59,35 7,4 12,10 13,18 4,23 32,149 48,156 64,26 76,-13 80,74 5,96 92,72 120,126 21,42 -50,67 -33,107 18,40 61,74 60,119 -3,80 -6,104 38,160 24,30 -78,25 -20,105 27,38 45,24 57,82 10,50 31,153 -7,195 -43,47 22,137 12,200 -15,100 6,123 58,195 47,65 -16,90 -32,173 -4,20 47,36 66,88 25,68 26,143 30,161 10,49 10,100 15,150l0 0c24,0 74,42 106,50 68,18 129,-15 190,-41 91,-71 224,-112 337,-132 125,-21 248,9 372,-1 139,-36 323,-13 468,-13 151,0 233,25 369,82 43,13 104,61 139,91 59,49 158,66 226,103 24,13 147,64 154,84l2 0c0,-16 -31,-44 -31,-60 62,0 152,82 217,82 34,17 20,48 52,56 27,7 58,3 87,9 50,11 94,62 141,80 80,32 168,96 241,143l241 152 366 235c58,37 129,72 174,123 42,47 122,96 152,149 46,31 85,98 120,140 126,149 297,340 314,543 4,28 30,46 34,75 14,85 48,162 127,204 69,36 115,15 180,-7l0 0c5,-14 10,-27 16,-41 20,-50 -15,-106 -34,-150 -27,-63 -30,-128 -21,-196 15,-121 65,-166 141,-195l0 0z"/>
  <polygon class="fil4 str1" points="24903,16281 28120,16281 28120,17874 24903,17874 "/>
  <path class="fil5" d="M28299 17781c0,-17 4,-34 13,-51 9,-17 22,-30 38,-39 17,-9 34,-14 52,-14 18,0 35,5 52,14 17,9 29,22 39,38 9,17 14,34 14,52 0,18 -5,35 -14,52 -9,17 -22,29 -39,39 -17,9 -34,14 -52,14 -18,0 -35,-5 -52,-14 -17,-9 -30,-22 -38,-39 -9,-17 -13,-34 -13,-51zm17 0c0,15 4,29 11,43 7,14 18,25 32,32 14,8 28,12 43,12 15,0 29,-4 43,-12 14,-8 24,-18 32,-32 8,-14 12,-28 12,-43 0,-15 -4,-29 -12,-43 -8,-14 -18,-25 -32,-32 -14,-8 -28,-11 -43,-11 -15,0 -30,4 -43,12 -14,8 -25,19 -32,32 -7,14 -11,28 -11,43zm104 -33l5 -17c12,3 21,9 28,18 7,9 10,20 10,33 0,16 -5,29 -16,39 -10,10 -25,15 -44,15 -12,0 -23,-2 -32,-7 -9,-5 -16,-11 -20,-20 -5,-9 -7,-18 -7,-29 0,-12 3,-22 9,-30 6,-8 14,-14 24,-17l4 16c-7,3 -12,7 -16,12 -4,5 -6,12 -6,19 0,11 4,19 11,26 8,7 18,10 32,10 14,0 25,-3 32,-10 7,-6 11,-15 11,-25 0,-8 -2,-16 -7,-22 -5,-6 -11,-10 -20,-12z"/>
  <path id="1" class="fil5" d="M28504 17486l-19 0c14,9 22,23 22,41 0,12 -3,22 -10,32 -6,10 -15,17 -27,23 -12,5 -25,8 -40,8 -15,0 -28,-2 -40,-7 -12,-5 -21,-12 -27,-22 -6,-10 -10,-21 -10,-33 0,-9 2,-17 6,-24 4,-7 9,-12 15,-17l-73 0 0 -25 202 0 0 23zm-73 78c19,0 33,-4 42,-12 9,-8 14,-17 14,-28 0,-11 -4,-20 -13,-28 -9,-8 -22,-11 -41,-11 -20,0 -35,4 -44,12 -9,8 -14,17 -14,29 0,11 4,20 13,28 9,7 23,11 42,11z"/>
  <polygon id="2" class="fil5" points="28444,17434 28419,17434 28419,17357 28444,17357 "/>
  <path id="3" class="fil5" d="M28504 17330l-146 0 0 -22 21 0c-7,-5 -13,-11 -17,-18 -4,-8 -7,-16 -7,-26 0,-11 2,-20 7,-27 5,-7 11,-12 19,-15 -17,-12 -26,-27 -26,-45 0,-15 4,-26 12,-34 8,-8 20,-12 37,-12l100 0 0 25 -92 0c-10,0 -17,1 -21,2 -4,2 -8,5 -11,9 -3,4 -4,9 -4,15 0,10 3,19 10,26 7,7 18,10 33,10l85 0 0 25 -95 0c-11,0 -19,2 -25,6 -6,4 -8,11 -8,20 0,7 2,13 6,19 4,6 9,10 16,13 7,3 17,4 31,4l76 0 0 25z"/>
  <path id="4" class="fil5" d="M28486 16999c8,9 13,18 17,27 3,9 5,18 5,27 0,16 -4,28 -12,37 -8,9 -18,13 -30,13 -7,0 -14,-2 -20,-5 -6,-3 -11,-8 -14,-13 -4,-5 -6,-11 -8,-18 -1,-5 -2,-12 -4,-22 -2,-20 -5,-35 -9,-44 -3,0 -6,0 -6,0 -10,0 -17,2 -21,7 -6,6 -8,16 -8,28 0,12 2,20 6,26 4,6 11,10 22,12l-3 24c-10,-2 -19,-6 -25,-11 -6,-5 -11,-12 -15,-22 -3,-10 -5,-21 -5,-33 0,-13 1,-23 4,-31 3,-8 7,-14 11,-17 4,-4 10,-6 17,-8 4,-1 12,-1 23,-1l33 0c23,0 38,-1 44,-2 6,-1 12,-3 18,-6l0 26c-5,3 -11,4 -18,5zm-55 2c4,9 7,23 9,41 1,10 3,17 5,22 2,4 5,7 8,10 4,2 7,3 12,3 7,0 12,-2 16,-8 4,-5 7,-12 7,-22 0,-10 -2,-18 -6,-26 -4,-7 -10,-13 -17,-16 -6,-3 -14,-4 -25,-4l-9 0z"/>
  <path id="5" class="fil5" d="M28560 16938l-203 0 0 -23 19 0c-7,-5 -13,-11 -17,-18 -4,-7 -6,-15 -6,-24 0,-13 3,-24 10,-33 6,-10 15,-17 27,-22 12,-5 25,-7 38,-7 15,0 28,3 40,8 12,5 21,13 28,23 6,10 10,21 10,32 0,8 -2,16 -5,22 -3,7 -8,12 -13,16l71 0 0 25zm-129 -23c19,0 33,-4 42,-11 9,-8 13,-17 13,-28 0,-11 -5,-20 -14,-28 -9,-8 -24,-12 -43,-12 -19,0 -33,4 -42,11 -9,8 -14,17 -14,27 0,11 5,20 15,28 10,8 24,12 43,12z"/>
  <path id="6" class="fil5" d="M28461 16791l-4 -25c10,-1 17,-5 23,-12 5,-6 8,-15 8,-26 0,-11 -2,-20 -7,-25 -5,-6 -10,-8 -16,-8 -6,0 -10,3 -13,7 -2,3 -5,12 -8,25 -5,18 -9,31 -12,38 -3,7 -8,12 -14,16 -6,4 -12,5 -20,5 -7,0 -13,-2 -18,-4 -6,-3 -10,-7 -14,-12 -3,-4 -5,-9 -7,-16 -2,-7 -3,-14 -3,-21 0,-11 2,-22 5,-30 3,-9 8,-15 13,-19 6,-4 13,-7 23,-9l3 24c-8,1 -14,4 -18,10 -4,5 -6,13 -6,22 0,11 2,19 6,24 4,5 8,7 13,7 3,0 6,-1 9,-3 3,-2 5,-5 7,-10 1,-3 3,-10 6,-22 5,-18 9,-30 11,-37 3,-7 7,-12 13,-16 6,-4 13,-6 21,-6 8,0 16,2 23,7 7,5 13,12 17,21 4,9 6,19 6,31 0,19 -4,34 -12,44 -8,10 -20,16 -35,19z"/>
  <polygon id="7" class="fil5" points="28504,16633 28476,16633 28476,16604 28504,16604 "/>
  <path id="8" class="fil5" d="M28451 16466l3 -24c17,3 30,9 39,20 9,11 14,24 14,40 0,20 -7,36 -20,48 -13,12 -32,18 -56,18 -16,0 -30,-3 -41,-8 -12,-5 -21,-13 -27,-24 -6,-11 -9,-22 -9,-35 0,-16 4,-29 12,-39 8,-10 19,-17 34,-19l4 24c-10,2 -17,6 -22,12 -5,6 -7,13 -7,21 0,13 4,23 13,31 9,8 23,12 42,12 20,0 34,-4 43,-11 9,-8 13,-17 13,-29 0,-10 -3,-18 -9,-24 -6,-7 -15,-11 -27,-12z"/>
  <path id="9" class="fil5" d="M28431 16429c-27,0 -47,-8 -60,-23 -11,-13 -16,-28 -16,-46 0,-20 7,-37 20,-49 13,-13 31,-19 55,-19 19,0 34,3 44,8 11,6 19,14 25,25 6,11 9,23 9,35 0,21 -7,37 -20,50 -13,13 -32,19 -57,19zm0 -25c19,0 33,-4 42,-12 9,-8 14,-19 14,-31 0,-12 -5,-23 -14,-31 -9,-8 -24,-12 -43,-12 -18,0 -32,4 -41,12 -9,8 -14,18 -14,31 0,12 5,23 14,31 9,8 23,12 42,12z"/>
  <path id="10" class="fil5" d="M28504 16263l-146 0 0 -22 21 0c-7,-5 -13,-11 -17,-18 -4,-8 -7,-16 -7,-26 0,-11 2,-20 7,-27 5,-7 11,-12 19,-15 -17,-12 -26,-27 -26,-45 0,-15 4,-26 12,-34 8,-8 20,-12 37,-12l100 0 0 25 -92 0c-10,0 -17,1 -21,2 -4,2 -8,5 -11,9 -3,4 -4,9 -4,15 0,10 3,19 10,26 7,7 18,10 33,10l85 0 0 25 -95 0c-11,0 -19,2 -25,6 -6,4 -8,11 -8,20 0,7 2,13 6,19 4,6 9,10 16,13 7,3 17,4 31,4l76 0 0 25z"/>
  <g id="_1356904635120">
   <g>
    <polygon class="fil6 str2" points="25016,16884 25948,16884 25948,16983 25016,16983 "/>
    <polygon class="fil7 str2" points="25948,16884 26880,16884 26880,16983 25948,16983 "/>
    <polygon class="fil6 str2" points="26880,16884 27813,16884 27813,16983 26880,16983 "/>
    <polygon class="fil6 str2" points="26510,17183 28001,17183 28001,17282 26510,17282 "/>
    <polygon class="fil7 str2" points="25019,17183 26510,17183 26510,17282 25019,17282 "/>
   </g>
   <path class="fil8" d="M26123 16449l0 7c-15,1 -27,4 -37,9 -10,5 -19,11 -28,21 -9,9 -17,20 -23,31 -6,11 -11,25 -15,41 16,-11 33,-17 50,-17 16,0 30,6 41,19 12,13 18,29 18,50 0,19 -6,37 -18,53 -14,19 -33,29 -56,29 -16,0 -30,-5 -41,-16 -22,-21 -33,-47 -33,-80 0,-21 4,-41 13,-60 8,-19 20,-36 36,-50 16,-15 30,-24 45,-29 14,-5 27,-8 40,-8l10 0zm-107 120c-2,16 -3,28 -3,38 0,11 2,23 6,36 4,13 10,23 18,31 6,5 13,8 21,8 10,0 19,-5 27,-14 8,-9 12,-23 12,-40 0,-20 -4,-37 -12,-51 -8,-14 -19,-22 -33,-22 -4,0 -9,1 -14,3 -5,2 -12,6 -22,12z"/>
   <path id="1" class="fil8" d="M26154 16572c0,-27 4,-50 12,-69 8,-19 19,-34 32,-43 10,-7 21,-11 32,-11 18,0 34,9 48,27 18,23 27,53 27,92 0,27 -4,50 -12,69 -8,19 -18,33 -30,41 -12,9 -24,13 -35,13 -22,0 -41,-13 -56,-39 -13,-22 -19,-49 -19,-80zm34 4c0,32 4,58 12,79 7,17 16,26 29,26 6,0 13,-3 19,-8 7,-6 12,-15 15,-28 5,-20 8,-48 8,-83 0,-27 -3,-49 -8,-67 -4,-13 -9,-23 -16,-28 -5,-4 -10,-6 -17,-6 -8,0 -15,4 -21,11 -8,10 -14,24 -17,45 -3,20 -4,41 -4,60z"/>
   <path id="2" class="fil8" d="M26464 16442l0 157 40 -37c9,-8 13,-13 15,-15 1,-1 1,-3 1,-4 0,-2 -1,-4 -3,-6 -2,-2 -5,-3 -9,-3l0 -6 69 0 0 6c-9,0 -17,2 -23,4 -6,3 -13,7 -21,14l-41 37 40 51c11,14 19,23 23,27 6,5 10,9 15,10 3,1 8,2 15,2l0 6 -77 0 0 -6c4,0 7,-1 9,-2 2,-1 2,-3 2,-5 0,-3 -2,-7 -7,-13l-48 -62 0 52c0,10 1,17 2,20 1,3 3,5 6,7 3,1 8,2 17,2l0 6 -80 0 0 -6c8,0 14,-1 18,-3 2,-1 4,-3 5,-6 2,-4 3,-10 3,-20l0 -144c0,-18 0,-29 -1,-33 -1,-4 -2,-7 -4,-8 -2,-2 -4,-2 -7,-2 -2,0 -6,1 -11,3l-3 -6 47 -19 8 0z"/>
   <path id="3" class="fil8" d="M26641 16559c11,-12 18,-18 20,-20 5,-4 11,-8 17,-10 6,-2 12,-4 18,-4 10,0 18,3 25,9 7,6 12,14 14,25 12,-14 22,-23 30,-27 8,-4 17,-6 25,-6 8,0 16,2 22,6 6,4 12,11 15,21 3,7 4,17 4,31l0 68c0,10 1,17 2,20 1,2 3,5 6,6 3,2 8,3 15,3l0 6 -77 0 0 -6 3 0c7,0 12,-1 16,-4 3,-2 5,-5 6,-9 0,-2 1,-7 1,-17l0 -68c0,-13 -2,-22 -5,-27 -5,-7 -12,-11 -22,-11 -6,0 -12,2 -18,5 -6,3 -14,9 -22,17l0 2 1 7 0 75c0,11 1,17 2,20 1,3 3,5 7,7 3,2 9,3 17,3l0 6 -79 0 0 -6c9,0 15,-1 18,-3 3,-2 5,-5 7,-9 1,-2 1,-8 1,-17l0 -68c0,-13 -2,-22 -6,-28 -5,-7 -12,-11 -21,-11 -6,0 -12,2 -18,5 -9,5 -17,11 -22,17l0 85c0,10 1,17 2,20 1,3 4,5 6,7 3,2 8,2 17,2l0 6 -78 0 0 -6c7,0 12,-1 15,-2 3,-2 5,-4 7,-7 1,-3 2,-10 2,-20l0 -60c0,-17 -1,-28 -2,-34 -1,-4 -2,-6 -4,-8 -2,-1 -4,-2 -7,-2 -3,0 -7,1 -12,3l-3 -6 48 -19 7 0 0 34z"/>
   <path class="fil8" d="M26270 17571l0 24 -31 0 0 62 -29 0 0 -62 -98 0 0 -22 108 -155 19 0 0 152 31 0zm-60 0l0 -116 -82 116 82 0z"/>
   <path id="1" class="fil8" d="M26295 17542c0,-27 4,-50 12,-69 8,-19 19,-34 32,-43 10,-7 21,-11 32,-11 18,0 34,9 48,27 18,23 27,53 27,92 0,27 -4,50 -12,69 -8,19 -18,33 -30,41 -12,9 -24,13 -35,13 -22,0 -41,-13 -56,-39 -13,-22 -19,-49 -19,-80zm34 4c0,32 4,58 12,79 7,17 16,26 29,26 6,0 13,-3 19,-8 7,-6 12,-15 15,-28 5,-20 8,-48 8,-83 0,-27 -3,-49 -8,-67 -4,-13 -9,-23 -16,-28 -5,-4 -10,-6 -17,-6 -8,0 -15,4 -21,11 -8,10 -14,24 -17,45 -3,20 -4,41 -4,60z"/>
   <path id="2" class="fil8" d="M26605 17528c11,-12 18,-18 20,-20 5,-4 11,-8 17,-10 6,-2 12,-4 18,-4 10,0 18,3 25,9 7,6 12,14 14,25 12,-14 22,-23 30,-27 8,-4 17,-6 25,-6 8,0 16,2 22,6 6,4 12,11 15,21 3,7 4,17 4,31l0 68c0,10 1,17 2,20 1,2 3,5 6,6 3,2 8,3 15,3l0 6 -77 0 0 -6 3 0c7,0 12,-1 16,-4 3,-2 5,-5 6,-9 0,-2 1,-7 1,-17l0 -68c0,-13 -2,-22 -5,-27 -5,-7 -12,-11 -22,-11 -6,0 -12,2 -18,5 -6,3 -14,9 -22,17l0 2 1 7 0 75c0,11 1,17 2,20 1,3 3,5 7,7 3,2 9,3 17,3l0 6 -79 0 0 -6c9,0 15,-1 18,-3 3,-2 5,-5 7,-9 1,-2 1,-8 1,-17l0 -68c0,-13 -2,-22 -6,-28 -5,-7 -12,-11 -21,-11 -6,0 -12,2 -18,5 -9,5 -17,11 -22,17l0 85c0,10 1,17 2,20 1,3 4,5 6,7 3,2 8,2 17,2l0 6 -78 0 0 -6c7,0 12,-1 15,-2 3,-2 5,-4 7,-7 1,-3 2,-10 2,-20l0 -60c0,-17 -1,-28 -2,-34 -1,-4 -2,-6 -4,-8 -2,-1 -4,-2 -7,-2 -3,0 -7,1 -12,3l-3 -6 48 -19 7 0 0 34z"/>
   <path id="3" class="fil8" d="M26873 17412c5,0 9,2 12,5 3,3 5,8 5,12 0,5 -2,9 -5,12 -3,3 -8,5 -12,5 -5,0 -9,-2 -12,-5 -3,-3 -5,-8 -5,-12 0,-5 2,-9 5,-12 3,-3 8,-5 13,-5zm14 83l0 127c0,10 1,16 2,20 1,3 4,6 6,7 3,2 8,2 15,2l0 6 -77 0 0 -6c8,0 13,-1 15,-2 3,-1 5,-4 6,-7 2,-3 2,-10 2,-20l0 -61c0,-17 -1,-28 -2,-33 -1,-4 -2,-6 -4,-8 -2,-1 -4,-2 -7,-2 -3,0 -7,1 -12,3l-2 -6 47 -19 8 0z"/>
  </g>
  <rect class="fil9 str3" x="1016" y="995" width="27700" height="17110"/>
  <g id="_1356904696880">
   <polygon class="fil4 str1" points="23947,16278 24763,16278 24763,17871 23947,17871 "/>
   <path class="fil10" d="M24295 16714c-1,3 -2,6 -2,9 0,3 -1,5 -1,7 0,6 2,10 5,12 3,2 10,3 18,3l4 0 -5 23 -78 0 5 -23 3 0c7,0 13,-2 16,-5 4,-3 6,-8 8,-16l38 -154c1,-3 1,-6 2,-8 0,-3 1,-6 1,-9 0,-5 -2,-9 -6,-11 -4,-2 -11,-3 -20,-3l-3 0 5 -23 72 0 62 184 31 -129c1,-4 2,-8 2,-10 0,-3 1,-5 1,-6 0,-6 -2,-10 -5,-12 -4,-2 -10,-3 -18,-3l-4 0 5 -23 79 0 -6 23 -3 0c-7,0 -13,2 -16,5 -4,3 -6,8 -8,16l-51 208 -22 0 -72 -209 -37 155z"/>
   <line class="fil9 str4" x1="24355" y1="17738" x2="24355" y2= "16968" />
   <line class="fil9 str4" x1="24073" y1="17462" x2="24636" y2= "17462" />
   <line class="fil9 str4" x1="24210" y1="17602" x2="24505" y2= "17315" />
   <line class="fil9 str4" x1="24207" y1="17315" x2="24505" y2= "17603" />
   <line class="fil9 str4" x1="24355" y1="16971" x2="24260" y2= "17089" />
   <line class="fil9 str4" x1="24356" y1="16971" x2="24444" y2= "17089" />
  </g>
  <g id="_1356904684240">
   <polygon class="fil4 str1" points="23185,17397 23185,17871 20875,17871 20875,17397 "/>
   <path class="fil10" d="M21953 17736l0 -202 40 0 48 143c4,13 8,23 10,30 2,-7 6,-18 11,-32l49 -141 36 0 0 202 -26 0 0 -169 -59 169 -24 0 -58 -172 0 172 -26 0z"/>
   <path id="1" class="fil10" d="M22285 17688l26 3c-4,15 -11,27 -22,35 -11,8 -25,12 -42,12 -21,0 -38,-7 -51,-20 -13,-13 -19,-32 -19,-55 0,-25 6,-44 19,-57 13,-14 29,-20 49,-20 20,0 35,7 48,20 12,13 19,32 19,56 0,1 0,4 0,7l-109 0c1,16 5,28 14,37 8,9 18,13 31,13 9,0 17,-2 23,-7 6,-5 12,-12 15,-23zm-81 -40l82 0c-1,-12 -4,-22 -9,-28 -8,-10 -18,-14 -31,-14 -11,0 -21,4 -29,11 -8,8 -12,18 -13,31z"/>
   <path id="2" class="fil10" d="M22342 17736l0 -146 22 0 0 22c6,-10 11,-17 16,-21 5,-3 10,-5 16,-5 8,0 17,3 26,8l-9 23c-6,-3 -12,-5 -18,-5 -5,0 -10,2 -15,5 -4,3 -7,8 -9,14 -3,9 -4,18 -4,29l0 77 -25 0z"/>
   <path id="3" class="fil10" d="M22532 17682l24 3c-3,17 -9,30 -20,39 -11,9 -24,14 -40,14 -20,0 -36,-7 -48,-20 -12,-13 -18,-32 -18,-56 0,-16 3,-30 8,-41 5,-12 13,-21 24,-27 11,-6 22,-9 35,-9 16,0 29,4 39,12 10,8 17,19 19,34l-24 4c-2,-10 -6,-17 -12,-22 -6,-5 -13,-7 -21,-7 -13,0 -23,4 -31,13 -8,9 -12,23 -12,42 0,20 4,34 11,43 8,9 17,13 29,13 10,0 18,-3 24,-9 7,-6 11,-15 12,-27z"/>
   <path id="4" class="fil10" d="M22673 17717c-9,8 -18,13 -27,17 -9,3 -18,5 -27,5 -16,0 -28,-4 -37,-12 -9,-8 -13,-18 -13,-30 0,-7 2,-14 5,-20 3,-6 8,-11 13,-14 5,-4 11,-6 18,-8 5,-1 12,-2 22,-4 20,-2 35,-5 44,-9 0,-3 0,-6 0,-6 0,-10 -2,-17 -7,-21 -6,-6 -16,-8 -28,-8 -12,0 -20,2 -26,6 -6,4 -10,11 -12,22l-24 -3c2,-10 6,-19 11,-25 5,-6 12,-11 22,-15 10,-3 21,-5 33,-5 13,0 23,1 31,4 8,3 14,7 17,11 4,4 6,10 8,17 1,4 1,12 1,23l0 33c0,23 1,38 2,44 1,6 3,12 6,18l-26 0c-3,-5 -4,-11 -5,-18zm-2 -55c-9,4 -23,7 -41,9 -10,1 -17,3 -22,5 -4,2 -7,5 -10,8 -2,4 -3,7 -3,12 0,7 2,12 8,16 5,4 12,7 22,7 10,0 18,-2 26,-6 7,-4 13,-10 16,-17 3,-6 4,-14 4,-25l0 -9z"/>
   <path id="5" class="fil10" d="M22788 17713l3 22c-7,1 -13,2 -19,2 -9,0 -16,-1 -21,-4 -5,-3 -8,-7 -10,-11 -2,-5 -3,-14 -3,-29l0 -84 -18 0 0 -19 18 0 0 -36 25 -15 0 51 25 0 0 19 -25 0 0 86c0,7 0,12 1,14 1,2 2,4 4,5 2,1 5,2 8,2 3,0 6,0 11,-1z"/>
   <path id="6" class="fil10" d="M22803 17662c0,-27 8,-47 23,-60 13,-11 28,-16 46,-16 20,0 37,7 49,20 13,13 19,31 19,55 0,19 -3,34 -8,44 -6,11 -14,19 -25,25 -11,6 -23,9 -35,9 -21,0 -37,-7 -50,-20 -13,-13 -19,-32 -19,-57zm25 0c0,19 4,33 12,42 8,9 19,14 31,14 12,0 23,-5 31,-14 8,-9 12,-24 12,-43 0,-18 -4,-32 -12,-41 -8,-9 -18,-14 -31,-14 -12,0 -23,5 -31,14 -8,9 -12,23 -12,42z"/>
   <path id="7" class="fil10" d="M22969 17736l0 -146 22 0 0 22c6,-10 11,-17 16,-21 5,-3 10,-5 16,-5 8,0 17,3 26,8l-9 23c-6,-3 -12,-5 -18,-5 -5,0 -10,2 -15,5 -4,3 -7,8 -9,14 -3,9 -4,18 -4,29l0 77 -25 0z"/>
   <circle class="fil11 str5" cx="21094" cy="17630" r="119"/>
   <rect class="fil11 str5" x="21552" y="17522" width="227" height="227"/>
   <line class="fil9 str6" x1="21268" y1="17629" x2="21488" y2= "17629" />
   <line class="fil9 str6" x1="21485" y1="17630" x2="21421" y2= "17695" />
   <line class="fil9 str6" x1="21485" y1="17629" x2="21422" y2= "17568" />
  </g>
 </g>
</svg>
