<?xml version="1.0" encoding="UTF-8"?>
<!DOCTYPE svg PUBLIC "-//W3C//DTD SVG 1.1//EN" "http://www.w3.org/Graphics/SVG/1.1/DTD/svg11.dtd">
<!-- Creator: CorelDRAW -->
<svg xmlns="http://www.w3.org/2000/svg" xml:space="preserve" width="210mm" height="297mm" version="1.1" style="shape-rendering:geometricPrecision; text-rendering:geometricPrecision; image-rendering:optimizeQuality; fill-rule:evenodd; clip-rule:evenodd"
viewBox="0 0 21000 29700"
 xmlns:xlink="http://www.w3.org/1999/xlink">
 <defs>
  <style type="text/css">
   <![CDATA[
    .str1 {stroke:black;stroke-width:10;stroke-opacity:0.501961}
    .str3 {stroke:black;stroke-width:50}
    .str5 {stroke:#434242;stroke-width:10}
    .str2 {stroke:#3F3E3F;stroke-width:10}
    .str0 {stroke:black;stroke-width:10}
    .str6 {stroke:#2B2A29;stroke-width:7.62}
    .str4 {stroke:black;stroke-width:7.62}
    .fil7 {fill:none}
    .fil1 {fill:#FEFEFE}
    .fil0 {fill:#EBECEC}
    .fil9 {fill:#D9DADA}
    .fil5 {fill:#FEFEFE;fill-rule:nonzero}
    .fil4 {fill:#D9DADA;fill-rule:nonzero}
    .fil8 {fill:#434242;fill-rule:nonzero}
    .fil6 {fill:#2B2A29;fill-rule:nonzero}
    .fil3 {fill:black;fill-rule:nonzero}
    .fil2 {fill:#FEFEFE;fill-rule:nonzero;fill-opacity:0.501961}
   ]]>
  </style>
 </defs>
 <g id="Plan_x0020_1">
  <metadata id="CorelCorpID_0Corel-Layer"/>
  <path class="fil0 str0" d="M15633 9685c-20,5 -52,-14 -73,-18 -12,-3 -29,13 -16,24 10,8 22,12 22,26 -8,2 -33,18 -39,24 -15,15 -79,57 -52,72 29,16 54,17 75,48 35,50 49,-54 84,-61 13,-2 42,-11 50,-21 11,-14 -1,-66 -18,-73l-33 -21zm-14633 6689l93 18c24,8 68,-57 92,-69 27,-13 54,-26 75,-48 36,-39 75,-29 117,-54 39,-23 56,-59 102,-75l43 -20 0 0c33,27 124,67 86,122 -38,55 59,55 101,76 112,56 313,105 426,52 98,-46 119,-32 119,-156 0,-145 106,-110 199,-160 159,-55 286,-168 462,-168 137,0 232,-16 282,-151 31,-82 -22,-176 -5,-246 39,-10 91,15 117,-27 21,-34 63,-74 94,-102 52,-42 75,-78 139,-110 54,-27 78,-53 112,-101 14,-21 24,-83 36,-91 21,-15 97,22 97,-28 0,-50 32,-130 -2,-168 -29,-32 -1,-39 22,-74 21,-32 4,-64 17,-97 14,-35 32,-49 41,-87 97,0 148,46 225,91 54,32 7,262 -2,322 -16,95 25,182 21,269 16,60 70,83 85,144 10,38 61,121 56,151 -6,37 -26,69 -33,105 -7,37 -10,100 -10,138 72,-18 112,-68 185,-17 59,41 129,151 207,122 33,-12 74,-98 96,-23 17,58 -57,92 23,150l105 43c28,-23 54,-47 75,-94 47,-107 132,-68 197,-141 48,-54 46,-61 63,-128 19,-75 63,-64 63,-166 0,-108 110,-122 122,-228 5,-46 19,-104 83,-91 46,9 132,31 145,-30l76 51c49,36 108,46 159,79 29,18 98,57 112,4 -36,-114 4,-182 -18,-288 -10,-49 139,-162 190,-127 36,25 146,83 157,123 21,80 46,158 79,229 22,47 68,45 113,37 22,-4 102,61 130,77 119,67 -146,319 58,307 92,-6 57,-89 161,-33 57,25 81,58 145,43 50,-13 94,28 135,17 30,-8 148,-169 192,-204 65,-52 31,-120 77,-166 46,34 106,14 144,71 29,43 96,118 145,136 139,54 231,46 372,46 -29,87 -40,133 -22,232 108,135 153,224 311,294 46,20 59,79 99,96 48,21 145,-40 197,-49 27,-5 226,-27 229,10 5,71 -64,221 22,243 8,31 4,63 11,93 8,35 50,6 52,-18 3,-27 101,-184 122,-184 2,-5 14,4 17,5 9,4 23,7 33,7 20,2 32,23 49,35 12,21 107,119 130,135 46,34 115,29 170,18 46,-9 69,28 107,28 74,0 85,-23 162,7 32,13 14,-49 54,-48 31,1 70,18 94,38 49,41 163,140 169,205 7,74 -7,51 43,107 118,93 205,112 319,-17 53,-60 24,-28 97,-13 74,15 46,-60 57,-105 31,0 156,129 192,154 65,45 130,128 130,208 0,180 168,241 316,294 145,51 137,-49 233,-115 108,-108 128,-111 241,-11 64,57 167,120 249,147 105,35 109,-94 163,-111 19,-6 92,-28 92,-54 43,57 26,260 145,267 120,7 196,110 285,110 69,0 109,53 162,91l114 53c-38,9 -50,49 -62,97 -6,26 -74,184 17,162 27,-7 61,-52 83,-50 49,6 -17,57 -27,79 -20,47 -34,97 -59,139l-24 15c-30,10 -88,-5 -122,-4 -39,1 -80,46 -44,80 26,24 41,32 75,39 29,6 53,32 57,61 4,37 -34,85 -73,65 -12,28 -64,22 -62,54 2,40 158,69 40,100 -29,8 -53,-5 -80,4 -15,5 -52,41 -73,52 -53,29 -15,76 10,106 32,40 -19,81 -52,54 -12,1 -22,-12 -29,-9 -43,15 -28,77 -71,94 -98,39 -164,83 -243,162 -51,51 -37,109 -137,102 -33,-2 -24,-47 -33,-71 -14,-37 -118,6 -138,18 -52,-29 -165,166 -189,191 -14,15 -17,86 -45,88 -42,3 -53,22 -72,59 -32,64 -23,109 3,157l-36 24c-27,4 -62,-21 -83,7 -20,27 -10,53 -4,81 3,11 -2,36 -4,48 -7,28 -19,30 -27,3 -8,-27 -13,-65 -39,-79 -24,-13 -45,4 -52,27 -9,29 -3,34 12,55 37,52 -10,124 92,124 27,0 87,-14 99,-41 32,3 51,12 21,64 -46,79 -265,115 -310,20 -12,-26 -65,-176 -113,-98l10 49c26,47 71,81 91,134 16,43 32,123 -18,151 -33,18 -84,27 -120,35 -58,14 -77,-63 -41,-96 27,-25 150,-42 117,-89 -23,-33 -50,-52 -77,-81 -2,3 -4,7 -7,10 -8,10 -16,19 -24,28 -5,6 -12,22 -15,28 -9,23 -136,71 -164,79 -104,29 -15,42 -33,119 -8,36 -83,9 -99,-4 -17,-14 -92,32 -97,-2 -6,-39 19,-78 -16,-105 -82,-63 -161,155 -197,144 -85,-26 -86,12 -90,105 -3,78 -64,223 -102,74 -7,-26 9,-123 -30,-126 -122,-9 -327,120 -392,217 -55,82 129,140 63,193 -14,11 -27,23 -41,34 36,29 35,131 92,149 124,40 324,-11 382,76 79,120 161,202 304,202 1,-2 0,0 1,-2 5,-1 4,-32 7,-39 9,-18 18,-36 32,-50l97 -96c40,-39 151,-207 188,-223 59,-25 108,-49 162,-84 66,-28 87,-72 123,-127 34,-52 30,-72 50,-128 36,-103 190,-141 276,-204 54,-39 124,-99 191,-84 31,18 98,123 134,90l135 -123c25,-23 51,-70 73,-85 52,-35 103,7 164,-50 67,-62 191,-28 271,-20 58,6 84,-40 136,-40l1 -1c0,-54 -29,-115 -40,-166 -18,-88 -86,-112 2,-163 96,-64 148,-14 244,-80 71,-49 200,-50 214,-139 10,-62 14,-121 75,-124 108,-5 148,-53 246,-63l439 -45c95,-10 88,-2 79,-76 -7,-58 29,-110 39,-168l28 -102c6,9 16,11 36,3 3,-1 17,-94 41,-55 53,87 4,-102 66,-22 87,113 109,-113 157,74 19,74 64,-35 72,-41 18,-16 91,-25 113,-15 11,5 -4,58 4,69 12,18 112,-31 133,-40 58,-26 43,-16 69,-72 8,-16 116,-39 116,4 0,47 -27,72 -12,129 17,67 79,12 124,24 97,27 87,-66 137,-117 22,-22 74,7 88,26 29,40 25,-2 69,33 45,35 21,86 83,117 23,12 123,-8 140,-26 47,-51 -64,-91 26,-171 30,-27 41,-71 91,-59 23,6 51,20 71,34 8,-12 50,-136 36,-147 0,-45 -55,-82 -55,-116 0,-23 -3,-108 9,-121 26,-30 222,-16 276,-43 17,-8 60,-46 72,-48l1 -2c43,0 152,-17 185,0 33,17 115,68 137,96 11,13 47,71 58,77 1,6 7,8 7,12 6,3 11,11 16,12l45 83 67 132c31,3 44,31 79,29 48,-3 136,-56 150,13 7,36 68,68 102,48 27,-16 -26,-74 6,-99 26,-20 49,26 68,30 19,4 24,-61 40,-74 31,-25 35,88 64,106 42,26 33,-75 45,-93 23,-33 104,9 123,-16l14 35c26,12 19,29 56,23 22,-4 43,-11 63,-22 48,-24 105,-38 154,-61 50,-24 154,-13 169,-74 -2,-1 -1,0 -1,-2 23,-6 48,-60 75,-63 4,-25 109,-81 119,-127l23 -95c20,9 26,-21 37,-34 16,-20 58,15 78,-17 9,-15 -49,-25 -44,-61 11,-71 80,-7 116,-2 17,2 29,0 40,-5l-4 86c-6,21 51,39 58,62 11,36 19,71 24,108 10,62 -28,194 99,130 67,-33 57,2 124,30 34,14 82,22 119,21 115,-3 199,-6 299,-65 78,-46 239,-51 286,-133 72,-54 119,-136 197,-186 53,-34 102,-91 120,-154 32,-108 -96,-226 -122,-319 -22,-81 -89,-128 -119,-202 -25,-61 -69,-63 -99,-107l-155 -75c8,-25 17,-54 24,-69 25,-57 -27,-40 -27,-87 0,-27 94,-181 137,-143 24,22 44,55 73,78l34 -87 -27 -130 -54 -200c-13,-48 -80,-117 -38,-166 39,-44 -19,-68 -12,-87 11,-32 54,-54 67,-96 15,-50 -42,-78 -15,-126 65,-114 41,-116 -17,-222 -15,-32 -70,-85 -45,-122 20,-30 53,-78 28,-115 -49,-71 -118,-134 -156,-216 -26,-56 16,-119 12,-180 -2,-41 -117,-139 -143,-183 -38,-61 -178,78 -229,110 -50,31 -81,93 -128,129 -19,23 -139,84 -139,95 4,61 -75,50 -103,94 -50,77 -153,255 -135,345 -17,-10 -79,-23 -79,-44 0,-35 3,-83 -23,-111 -60,-65 -189,-10 -161,-118 15,-56 1,-102 43,-144 52,-52 85,-95 74,-174 -10,-73 -19,-185 27,-246 22,-51 10,-78 10,-126 0,-48 22,-68 7,-117 -28,-96 21,-147 88,-199 36,-28 64,-102 105,-116 37,-13 32,-19 45,-48 6,-13 55,-42 68,-44 1,-4 17,-6 19,-11 36,-7 27,-79 27,-104 -12,-4 -21,-16 -30,-29l-27 -40c24,-16 48,-32 70,-53 15,-15 57,-41 84,-54 62,-29 -37,-65 -10,-116 -17,-21 -65,-61 -75,-88 -9,-23 -22,-32 -18,-58 5,-35 9,-70 40,-89 16,-10 23,1 34,-17l79 -45 -55 -163 68 -12c60,-27 56,-68 56,-128 0,-40 34,-131 7,-150 -26,-19 -43,-23 -66,-49 -36,-40 -57,-65 -80,-115 -32,-68 -89,-123 -69,-206 0,-37 20,-135 -33,-135 -35,0 -135,-1 -164,12 -39,17 -64,47 -102,9 -44,-44 -101,-58 -163,-50 -119,15 -96,-42 -96,-126 0,-94 -33,-223 -16,-310 10,-49 -1,-116 12,-155 26,-77 -33,-102 -36,-169 0,-66 -35,-99 1,-167 27,-51 41,-109 16,-162 -52,-108 -190,-150 -269,-247 -23,-29 -125,-232 -107,-115 3,18 21,31 21,52 0,73 -49,-14 -62,-16 -30,-5 -41,-4 -69,-20 -26,-9 -45,-78 -67,-101 -27,-28 -56,-5 -89,9 -63,26 -113,50 -171,89 -43,28 -99,22 -147,32 -89,19 -90,78 -196,55 -17,-59 10,-61 35,-107l62 -112c36,-65 131,-112 71,-196 -38,-53 7,-80 -2,-133 -7,-40 23,-146 -45,-119 -62,24 -50,-13 -107,-41 -25,-31 -50,-36 -84,-49 -32,-12 -57,-49 -83,-69 -52,-42 -96,-110 -148,-158 -102,-94 -36,-206 45,-288 14,-14 1,-61 1,-84 -43,-14 -175,-85 -175,-139 30,-4 51,-20 78,-28 29,-9 71,31 79,-1 9,-27 -6,-69 -1,-101 4,-26 12,-49 17,-74 10,-51 42,-94 78,-128 8,-7 -22,-58 -28,-60 -34,101 -112,164 -213,188 -23,5 -63,40 -73,40 -34,2 -60,-42 -80,-62 -27,-27 -73,-65 -105,-87 -20,-13 -67,-28 -78,-50 -13,-28 3,-71 -1,-104 -3,-31 -43,-34 -36,-74 3,-23 8,-38 -6,-59 -37,-52 -29,-54 -34,-113 -13,-158 -78,-81 -159,-163 -22,-22 -96,-113 -125,-113 -99,0 -121,221 -112,294 12,91 -47,22 -86,1 -85,-45 -40,-57 -78,-134 -5,-9 -69,11 -74,21 -19,36 -7,67 -18,100 -6,18 -68,-19 -81,-20 -30,-2 -91,16 -97,-23 -11,-72 -42,-5 -60,-38 -34,-64 15,-50 -60,-101 -34,-47 -159,-53 -169,-71 -22,-40 50,-45 69,-76 17,-28 12,-68 27,-99 24,-50 60,-67 83,-124 29,-73 68,-128 131,-173 76,-54 113,-165 38,-232 -78,-69 -44,-2 -106,34 -46,27 -45,-104 -32,-127 17,-28 46,-8 52,-56 36,-87 39,-349 -49,-409 -100,-69 -143,-222 -294,-201 -64,9 -231,3 -247,-79l-109 -76c21,-44 48,-78 85,-45 47,42 101,-10 75,-65 -41,-88 74,-138 90,-207 13,-54 -1,-47 49,-82 22,-15 35,-89 33,-116 -9,-108 -93,-117 28,-171 21,-9 86,-50 46,-74 -42,-26 -53,-33 -55,-78 -1,-36 83,-62 89,-100 13,-94 -135,-112 33,-196 58,-29 86,-66 137,-51 36,-40 136,-59 153,-104 11,-32 -52,-108 -55,-144 -3,-46 48,-55 54,-78 -45,-15 -75,-7 -89,-63 -36,0 -69,60 -69,-28 0,-43 -54,45 -89,0 -35,-45 19,-32 38,-37 0,-7 -5,-12 -9,-18 -15,-34 -30,-57 -2,-89 25,-29 46,20 73,33 85,40 125,-31 50,-91 -48,-39 -14,-52 -4,-106 20,-103 52,-85 103,-161 59,-87 11,-213 60,-279 33,-44 38,-102 67,-141 15,-46 10,-91 51,-122 18,-14 50,-52 51,-74 5,-79 51,-76 28,-171 -8,-35 37,-56 9,-100 -15,-23 72,-64 95,-84 21,-18 149,-114 168,-118 0,-70 -84,-141 -116,-194 -50,-80 -139,-116 -187,-200 -25,-43 -89,-234 -120,-250 -7,-28 -113,23 -89,-67 12,-43 41,-56 41,-108 0,-41 49,-171 91,-182 6,-24 -3,-46 2,-67l6 -109c-14,1 -22,-5 -20,-23 18,-164 -30,-68 -114,-44 -60,17 -191,34 -214,-48 -25,-86 -128,-94 -190,-150 -42,-38 -130,9 -201,-11 -2,-1 -2,0 -2,-2 -6,-24 -26,-100 -18,-116 34,-69 5,-57 -7,-89 -5,-14 0,-43 -10,-52 -24,-24 -38,-58 -57,-87 -27,-41 -82,-166 -88,-212 -3,-22 -6,-44 -33,-83 -106,-72 -216,-34 -308,-34 -65,0 -57,-145 -150,-145l-1 -1c0,-39 13,-76 13,-115 0,-46 -7,-115 -1,-157l0 0c79,0 149,-18 225,-22 99,-5 81,94 174,7 20,-18 68,-64 80,-87 42,-80 19,-100 105,-87 34,6 83,-15 116,-24 56,-16 244,-54 244,-112 0,-68 53,-67 78,-118l66 -139 0 0 5361 0 0 20722 -18995 0 0 -5348 0 0z"/>
  <path class="fil0 str0" d="M5189 9193c-50,-68 -137,-118 -223,-118 -49,0 -115,70 -165,96 -49,25 -102,64 -159,67 -95,5 -58,80 -118,134 -38,35 -43,15 -24,76 10,33 37,68 45,101 100,0 199,-54 302,-62l270 -22c83,-7 163,54 199,-41 34,-89 -37,-138 -105,-188l-22 -43zm-4189 7181l93 18c24,8 68,-57 92,-69 27,-13 54,-26 75,-48 36,-39 75,-29 117,-54 39,-23 56,-59 102,-75l43 -20 0 0 60 -38c36,-3 54,21 92,21 91,0 74,-243 56,-296 -9,-27 -54,-13 -57,-33 -6,-37 -3,-78 -7,-118 -6,-53 -34,-86 -17,-146 21,-98 146,-75 159,-189 4,-34 -1,-58 -1,-91 0,-20 86,-84 107,-110 53,-65 143,-78 187,-139 28,-39 -73,-225 -77,-277 -26,-79 -38,-145 -42,-228 -3,-48 -40,-53 -40,-108 0,-36 -91,-141 -24,-129 127,22 118,-38 213,-62 0,29 -12,57 -12,85 0,44 40,9 61,30 70,71 84,203 143,283 81,109 112,19 212,-21 95,-38 148,-8 241,-5 55,2 88,41 148,16 76,-32 72,-155 40,-216 -26,-50 -112,-201 38,-171 34,-9 122,-24 135,-51 6,-14 22,-77 19,-91 -10,-53 -9,-41 -2,-91 4,-30 -17,-41 -22,-68 -7,-36 -4,-121 5,-156 10,-38 18,-79 -4,-112 -57,-84 19,-98 45,-166 26,-69 108,-84 151,-154l40 -39c130,-72 203,-124 350,-55 55,26 86,21 145,12 116,-18 106,36 212,-32 107,-68 241,63 298,34 81,-41 105,-2 105,-93 0,-50 31,-92 16,-151 -63,13 -64,26 -116,-30 -15,-16 -63,-26 -63,-52 0,-24 4,-147 17,-161 12,-12 67,5 67,-16 0,-41 -14,-24 23,-61 -4,-17 -15,-32 -15,-49 62,-16 104,14 141,-56 10,-19 -9,-31 -23,-40 -15,-10 -104,-99 -41,-89 23,4 50,33 72,33 20,0 2,-26 -2,-33 -15,-23 20,-36 34,-52 29,-32 -33,-18 -33,-40 2,-1 16,-13 21,-13 8,-32 -34,-31 -44,-68 -18,-65 -28,-133 -38,-201 -9,-62 -5,-126 -5,-190 0,-17 16,-42 21,-60 5,-21 -13,-24 -17,-40 -15,-65 9,-18 -33,-56 -32,-29 40,-94 47,-128 12,-58 15,-121 28,-179 18,-128 -37,-36 -102,-88 -4,-3 63,-71 63,-107 0,-55 -20,-88 32,-127 34,-26 74,-49 100,-84 30,-40 117,-98 164,-119l119 -55c11,-5 5,-99 11,-132 13,-70 64,-146 69,-216 -49,-92 9,-96 24,-175 14,-72 -40,-69 -90,-94 -36,-18 -26,-205 -26,-255 0,-102 122,-113 204,-140 0,84 55,167 63,255 17,191 126,194 297,183 87,-6 168,-43 255,-43 107,0 145,-83 230,-90 62,-9 109,-64 169,-79 31,-8 50,-1 79,-1 41,0 78,-51 124,-60 67,-13 61,-13 61,-78 -88,0 -83,-16 -118,-90 -14,-29 15,-36 22,-56 12,-36 -47,-50 5,-96 30,-27 27,-34 7,-65 -28,-45 57,-59 28,-106 -37,-59 -1,-98 -34,-155 -39,-83 -56,-139 -36,-235 4,-19 101,-155 118,-171 44,-39 78,-44 135,-54 49,-8 100,-116 113,-165 25,-87 4,-174 91,-238 77,-70 89,-191 154,-269 53,-63 73,-108 150,-150 27,-15 112,-9 118,-39 18,-84 79,-115 26,-199 -47,-73 93,-144 144,-200 56,-50 65,-97 52,-166 -8,-42 47,-58 68,-91 27,-42 19,-50 80,-35 72,18 195,-19 212,68 11,59 193,119 251,119 62,0 101,7 146,-40 53,-56 93,-40 161,-34 64,-7 113,-24 171,7 101,53 69,-104 75,-157 16,-140 141,-235 173,-369 17,-74 -18,-128 -18,-195 0,-92 30,-159 96,-225 19,-38 60,-139 60,-180 0,-27 50,-48 50,-104 0,-126 75,-234 75,-363 -79,0 -81,31 -134,-49 -13,-20 82,-152 99,-182 15,-59 74,-127 77,-180 3,-59 -13,-110 -13,-166 80,0 125,20 181,-51 40,-51 28,-124 61,-178 29,-47 74,-33 84,-96 11,-68 29,-139 108,-145 70,-6 83,-144 130,-185l142 -87c43,-26 55,32 96,43 36,9 80,-60 96,-83 38,-55 132,-13 190,-65 30,-27 107,-37 150,-58 36,-18 56,21 90,13 50,-10 129,-21 171,-40 60,-27 57,-125 145,-101 57,4 197,-103 227,-154l124 -211c30,-51 43,-107 96,-143 61,-41 106,-145 143,-210 36,-62 36,-192 84,-224 58,-32 84,-112 145,-122 47,-8 74,-60 101,-101 47,-72 145,-136 216,-189 76,-56 107,-75 201,-51 79,20 164,-153 224,-201 38,-31 64,-74 106,-102 50,-34 16,-110 41,-150 48,-25 36,-87 100,-121 54,-29 94,-14 94,-91 0,-134 33,-138 133,-222l197 -166c57,-48 179,-26 244,-59 58,-29 105,-83 163,-107 84,-35 126,-5 202,-20l79 1 0 0c79,0 149,-18 225,-22 99,-5 81,94 174,7 20,-18 68,-64 80,-87 42,-80 19,-100 105,-87 34,6 83,-15 116,-24 56,-16 244,-54 244,-112 0,-68 53,-67 78,-118l66 -139 0 0 -13635 0 0 15374 0 0z"/>
  <path class="fil1 str0" d="M15633 9685c-20,5 -52,-14 -73,-18 -12,-3 -29,13 -16,24 10,8 22,12 22,26 -8,2 -33,18 -39,24 -15,15 -79,57 -52,72 29,16 54,17 75,48 35,50 49,-54 84,-61 13,-2 42,-11 50,-21 11,-14 -1,-66 -18,-73l-33 -21zm-10444 -492c-50,-68 -137,-118 -223,-118 -49,0 -115,70 -165,96 -49,25 -102,64 -159,67 -95,5 -58,80 -118,134 -38,35 -43,15 -24,76 10,33 37,68 45,101 100,0 199,-54 302,-62l270 -22c83,-7 163,54 199,-41 34,-89 -37,-138 -105,-188l-22 -43zm8358 -7612c-6,43 1,111 1,157 0,38 -13,75 -13,115l1 1c92,0 84,145 150,145 92,0 202,-38 308,34 27,39 31,61 33,83 6,46 61,171 88,212 19,29 33,62 57,87 9,9 4,38 10,52 12,32 42,20 7,89 -8,16 13,92 18,116 1,2 0,2 2,2 71,20 159,-27 201,11 62,56 165,64 190,150 23,81 154,65 214,48 85,-25 132,-121 114,44 -2,17 6,23 20,23l-6 109c-5,21 3,43 -2,67 -42,10 -91,140 -91,182 0,53 -29,65 -41,108 -25,90 82,39 89,67 32,16 95,207 120,250 49,84 138,120 187,200 31,53 116,124 116,194 -18,5 -147,100 -168,118 -23,20 -110,61 -95,84 28,44 -17,65 -9,100 23,95 -23,92 -28,171 -1,23 -33,61 -51,74 -41,31 -36,76 -51,122 -29,39 -34,97 -67,141 -49,66 -1,192 -60,279 -51,76 -84,58 -103,161 -10,54 -45,67 4,106 75,60 36,132 -50,91 -27,-13 -48,-62 -73,-33 -28,32 -13,55 2,89 4,7 9,11 9,18 -19,5 -73,-8 -38,37 35,45 89,-43 89,0 0,88 33,28 69,28 14,56 44,48 89,63 -6,23 -57,32 -54,78 3,36 66,112 55,144 -16,45 -117,64 -153,104 -51,-15 -79,22 -137,51 -168,84 -20,102 -33,196 -5,38 -90,64 -89,100 1,45 12,52 55,78 40,25 -25,65 -46,74 -121,53 -37,63 -28,171 2,26 -11,101 -33,116 -50,35 -36,27 -49,82 -16,69 -131,119 -90,207 26,55 -28,107 -75,65 -37,-33 -64,1 -85,45l109 76c16,82 183,88 247,79 152,-21 194,132 294,201 87,61 85,322 49,409 -6,48 -35,28 -52,56 -14,23 -14,154 32,127 62,-36 27,-104 106,-34 75,67 38,178 -38,232 -63,45 -102,100 -131,173 -23,57 -59,74 -83,124 -15,31 -10,71 -27,99 -19,31 -91,36 -69,76 10,18 135,23 169,71 75,51 26,37 60,101 17,33 49,-34 60,38 6,39 67,21 97,23 14,1 75,37 81,20 12,-33 -1,-64 18,-100 5,-10 70,-30 74,-21 38,77 -7,89 78,134 39,21 98,90 86,-1 -9,-72 13,-294 112,-294 29,0 103,91 125,113 82,82 146,5 159,163 5,59 -3,62 34,113 14,20 10,36 6,59 -6,40 34,43 36,74 4,32 -12,76 1,104 11,22 58,37 78,50 32,21 78,60 105,87 20,20 46,64 80,62 10,-1 50,-35 73,-40 100,-24 179,-87 213,-188 6,2 35,53 28,60 -36,34 -68,77 -78,128 -5,25 -13,48 -17,74 -5,32 10,74 1,101 -8,32 -50,-8 -79,1 -27,8 -48,24 -78,28 0,54 132,125 175,139 0,23 13,70 -1,84 -81,82 -147,193 -45,288 52,48 96,116 148,158 26,21 51,57 83,69 34,13 59,18 84,49 57,29 45,66 107,41 68,-26 38,79 45,119 10,53 -36,80 2,133 61,84 -35,131 -71,196l-62 112c-26,46 -52,49 -35,107 105,23 106,-36 196,-55 48,-10 104,-3 147,-32 59,-39 109,-63 171,-89 33,-14 62,-37 89,-9 21,23 41,92 67,101 28,16 39,15 69,20 13,2 62,88 62,16 0,-21 -18,-34 -21,-52 -18,-117 84,86 107,115 78,97 217,139 269,247 25,53 11,111 -16,162 -36,68 -1,101 -1,167 3,68 62,93 36,169 -13,39 -2,105 -12,155 -17,87 16,216 16,310 0,84 -23,141 96,126 62,-8 119,6 163,50 38,38 64,9 102,-9 30,-13 129,-12 164,-12 53,0 33,98 33,135 -19,83 38,138 69,206 23,49 45,74 80,115 23,26 40,30 66,49 26,19 -7,110 -7,150 0,60 4,101 -56,128l-68 12 55 163 -79 45c-11,18 -18,8 -34,17 -31,19 -35,54 -40,89 -4,27 10,36 18,58 10,27 58,67 75,88 -27,51 72,87 10,116 -27,13 -68,39 -84,54 -22,21 -46,37 -70,53l27 40c8,13 18,25 30,29 0,25 9,96 -27,104 -3,5 -18,7 -19,11 -13,2 -62,31 -68,44 -13,29 -8,35 -45,48 -40,14 -69,88 -105,116 -66,52 -115,102 -88,199 14,49 -7,69 -7,117 0,48 13,75 -10,126 -46,61 -37,173 -27,246 11,79 -22,122 -74,174 -42,42 -28,88 -43,144 -29,109 101,53 161,118 26,28 23,75 23,111 0,21 62,34 79,44 -18,-90 85,-268 135,-345 28,-43 107,-33 103,-94 -1,-11 120,-72 139,-95 47,-36 78,-98 128,-129 51,-31 191,-171 229,-110 27,44 141,142 143,183 3,61 -38,124 -12,180 38,82 106,144 156,216 25,36 -8,84 -28,115 -25,37 30,89 45,122 58,106 82,108 17,222 -28,48 30,75 15,126 -13,43 -56,65 -67,96 -6,18 51,42 12,87 -43,49 25,118 38,166l54 200 27 130 -34 87c-30,-23 -49,-57 -73,-78 -43,-38 -137,115 -137,143 0,47 51,29 27,87 -7,15 -16,44 -24,69l155 75c30,44 73,46 99,107 30,74 97,122 119,202 26,94 153,211 122,319 -18,62 -68,120 -120,154 -78,51 -125,132 -197,186 -47,82 -208,87 -286,133 -100,58 -184,61 -299,65 -37,1 -86,-6 -119,-21 -67,-29 -57,-64 -124,-30 -127,63 -89,-69 -99,-130 -6,-38 -13,-72 -24,-108 -7,-24 -64,-42 -58,-62l4 -86c-12,6 -24,7 -40,5 -35,-5 -105,-69 -116,2 -6,36 53,46 44,61 -20,32 -62,-3 -78,17 -11,14 -17,43 -37,34l-23 95c-10,46 -116,101 -119,127 -27,4 -52,58 -75,63 0,2 -1,2 1,2 -15,62 -119,51 -169,74 -49,23 -107,37 -154,61 -21,10 -41,18 -63,22 -37,6 -30,-11 -56,-23l-14 -35c-20,25 -101,-17 -123,16 -12,18 -3,119 -45,93 -30,-18 -34,-131 -64,-106 -16,13 -21,79 -40,74 -19,-4 -42,-51 -68,-30 -32,24 21,83 -6,99 -34,20 -95,-12 -102,-48 -13,-69 -101,-16 -150,-13 -35,2 -48,-26 -79,-29l-67 -132 -45 -83c-5,-1 -10,-10 -16,-12 0,-4 -6,-6 -7,-12 -11,-6 -48,-64 -58,-77 -23,-28 -104,-79 -137,-96 -33,-17 -141,0 -185,0l-1 2c-11,1 -55,39 -72,48 -54,27 -250,13 -276,43 -12,13 -9,98 -9,121 0,34 55,71 55,116 14,11 -28,135 -36,147 -20,-14 -48,-28 -71,-34 -50,-13 -61,31 -91,59 -89,80 21,120 -26,171 -16,18 -117,37 -140,26 -61,-31 -38,-82 -83,-117 -44,-35 -40,7 -69,-33 -14,-19 -66,-47 -88,-26 -51,51 -40,144 -137,117 -45,-13 -107,43 -124,-24 -15,-57 12,-82 12,-129 0,-42 -108,-20 -116,-4 -27,56 -11,46 -69,72 -21,9 -121,58 -133,40 -8,-12 7,-64 -4,-69 -22,-11 -95,-2 -113,15 -7,7 -53,116 -72,41 -48,-187 -70,39 -157,-74 -61,-80 -12,108 -66,22 -24,-39 -38,54 -41,55 -20,8 -30,6 -36,-3l-28 102c-10,58 -46,110 -39,168 9,73 16,66 -79,76l-439 45c-98,10 -138,58 -246,63 -62,3 -66,62 -75,124 -14,89 -143,90 -214,139 -96,67 -148,16 -244,80 -89,51 -21,75 -2,163 11,51 40,112 40,166l-1 1c-53,0 -78,47 -136,40 -80,-9 -205,-43 -271,20 -61,57 -112,15 -164,50 -22,15 -48,62 -73,85l-135 123c-36,33 -103,-72 -134,-90 -67,-15 -137,45 -191,84 -86,62 -240,101 -276,204 -20,56 -16,76 -50,128 -36,55 -57,99 -123,127 -54,35 -102,60 -162,84 -38,16 -149,184 -188,223l-97 96c-14,14 -23,32 -32,50 -3,7 -2,38 -7,39 -1,2 0,0 -1,2 -143,0 -225,-82 -304,-202 -58,-87 -258,-36 -382,-76 -56,-18 -56,-120 -92,-149 14,-12 27,-23 41,-34 66,-52 -118,-110 -63,-193 64,-97 270,-226 392,-217 40,3 24,100 30,126 38,148 99,3 102,-74 4,-93 5,-131 90,-105 36,11 115,-207 197,-144 35,27 10,66 16,105 5,34 80,-12 97,2 15,13 90,39 99,4 18,-78 -71,-90 33,-119 28,-8 155,-56 164,-79 3,-6 9,-22 15,-28 8,-9 17,-18 24,-28 3,-3 5,-7 7,-10 27,29 54,48 77,81 33,47 -90,64 -117,89 -36,33 -17,110 41,96 37,-9 87,-17 120,-35 50,-28 35,-108 18,-151 -20,-53 -65,-87 -91,-134l-10 -49c49,-79 101,71 113,98 45,96 264,60 310,-20 30,-52 12,-60 -21,-64 -12,27 -72,41 -99,41 -102,0 -55,-72 -92,-124 -15,-21 -21,-26 -12,-55 7,-23 28,-41 52,-27 26,14 31,52 39,79 8,27 21,25 27,-3 3,-11 7,-36 4,-48 -7,-28 -16,-54 4,-81 21,-28 56,-3 83,-7l36 -24c-27,-48 -35,-93 -3,-157 18,-37 30,-55 72,-59 28,-2 31,-73 45,-88 24,-25 137,-221 189,-191 20,-12 124,-55 138,-18 9,24 0,69 33,71 100,7 87,-52 137,-102 79,-79 145,-123 243,-162 43,-17 27,-78 71,-94 7,-2 17,10 29,9 32,26 84,-15 52,-54 -24,-30 -63,-77 -10,-106 21,-12 58,-47 73,-52 27,-9 51,4 80,-4 118,-31 -38,-60 -40,-100 -2,-32 50,-26 62,-54 38,20 77,-28 73,-65 -3,-29 -28,-55 -57,-61 -34,-7 -50,-15 -75,-39 -36,-34 5,-79 44,-80 34,-1 92,14 122,4l24 -15c24,-42 39,-92 59,-139 10,-22 76,-74 27,-79 -22,-3 -56,43 -83,50 -91,22 -23,-136 -17,-162 12,-48 23,-89 62,-97l-114 -53c-53,-38 -92,-91 -162,-91 -88,0 -165,-102 -285,-110 -119,-7 -102,-210 -145,-267 0,26 -73,48 -92,54 -53,17 -57,146 -163,111 -82,-27 -185,-90 -249,-147 -113,-100 -133,-97 -241,11 -97,66 -89,166 -233,115 -148,-52 -316,-113 -316,-294 0,-81 -65,-164 -130,-208 -36,-25 -161,-154 -192,-154 -11,45 17,120 -57,105 -73,-15 -45,-46 -97,13 -114,129 -201,110 -319,17 -50,-56 -35,-33 -43,-107 -7,-65 -120,-164 -169,-205 -23,-20 -63,-36 -94,-38 -39,-2 -22,60 -54,48 -77,-30 -87,-7 -162,-7 -38,0 -61,-37 -107,-28 -55,11 -124,15 -170,-18 -23,-17 -118,-115 -130,-135 -17,-12 -28,-34 -49,-35 -10,-1 -24,-3 -33,-7 -3,-1 -15,-10 -17,-5 -20,0 -119,157 -122,184 -3,25 -44,54 -52,18 -7,-30 -3,-62 -11,-93 -86,-22 -17,-172 -22,-243 -3,-36 -202,-14 -229,-10 -52,9 -149,70 -197,49 -40,-18 -53,-76 -99,-96 -158,-70 -204,-159 -311,-294 -18,-99 -7,-145 22,-232 -142,0 -233,7 -372,-46 -49,-19 -116,-94 -145,-136 -37,-56 -98,-36 -144,-71 -45,46 -12,114 -77,166 -44,35 -162,196 -192,204 -41,11 -85,-30 -135,-17 -63,16 -88,-17 -145,-43 -104,-57 -69,27 -161,33 -204,12 61,-241 -58,-307 -28,-16 -108,-81 -130,-77 -45,8 -91,11 -113,-37 -33,-71 -58,-149 -79,-229 -11,-40 -121,-98 -157,-123 -51,-35 -200,78 -190,127 22,106 -17,173 18,288 -14,53 -83,15 -112,-4 -51,-33 -110,-43 -159,-79l-76 -51c-12,62 -98,40 -145,30 -64,-13 -78,46 -83,91 -11,106 -122,120 -122,228 0,102 -45,91 -63,166 -17,67 -16,74 -63,128 -65,74 -150,34 -197,141 -21,47 -48,71 -75,94l-105 -43c-80,-58 -6,-92 -23,-150 -22,-74 -63,11 -96,23 -78,29 -147,-81 -207,-122 -73,-51 -113,-1 -185,17 0,-37 3,-100 10,-138 7,-36 27,-68 33,-105 5,-30 -46,-113 -56,-151 -16,-61 -69,-84 -85,-144 5,-87 -36,-175 -21,-269 10,-60 56,-290 2,-322 -77,-45 -128,-91 -225,-91 -10,38 -27,52 -41,87 -13,33 4,66 -17,97 -23,35 -51,42 -22,74 35,38 2,118 2,168 0,50 -76,13 -97,28 -12,9 -22,71 -36,91 -33,48 -58,74 -112,101 -63,32 -86,68 -139,110 -31,28 -73,68 -94,102 -26,42 -77,17 -117,27 -17,70 35,164 5,246 -50,136 -145,151 -282,151 -176,0 -303,113 -462,168 -94,50 -199,15 -199,160 0,124 -22,110 -119,156 -113,53 -314,3 -426,-52 -41,-21 -139,-20 -101,-76 38,-55 -53,-95 -86,-122l0 0 60 -38c36,-3 54,21 92,21 91,0 74,-243 56,-296 -9,-27 -54,-13 -57,-33 -6,-37 -3,-78 -7,-118 -6,-53 -34,-86 -17,-146 21,-98 146,-75 159,-189 4,-34 -1,-58 -1,-91 0,-20 86,-84 107,-110 53,-65 143,-78 187,-139 28,-39 -73,-225 -77,-277 -26,-79 -38,-145 -42,-228 -3,-48 -40,-53 -40,-108 0,-36 -91,-141 -24,-129 127,22 118,-38 213,-62 0,29 -12,57 -12,85 0,44 40,9 61,30 70,71 84,203 143,283 81,109 112,19 212,-21 95,-38 148,-8 241,-5 55,2 88,41 148,16 76,-32 72,-155 40,-216 -26,-50 -112,-201 38,-171 34,-9 122,-24 135,-51 6,-14 22,-77 19,-91 -10,-53 -9,-41 -2,-91 4,-30 -17,-41 -22,-68 -7,-36 -4,-121 5,-156 10,-38 18,-79 -4,-112 -57,-84 19,-98 45,-166 26,-69 108,-84 151,-154l40 -39c130,-72 203,-124 350,-55 55,26 86,21 145,12 116,-18 106,36 212,-32 107,-68 241,63 298,34 81,-41 105,-2 105,-93 0,-50 31,-92 16,-151 -63,13 -64,26 -116,-30 -15,-16 -63,-26 -63,-52 0,-24 4,-147 17,-161 12,-12 67,5 67,-16 0,-41 -14,-24 23,-61 -4,-17 -15,-32 -15,-49 62,-16 104,14 141,-56 10,-19 -9,-31 -23,-40 -15,-10 -104,-99 -41,-89 23,4 50,33 72,33 20,0 2,-26 -2,-33 -15,-23 20,-36 34,-52 29,-32 -33,-18 -33,-40 2,-1 16,-13 21,-13 8,-32 -34,-31 -44,-68 -18,-65 -28,-133 -38,-201 -9,-62 -5,-126 -5,-190 0,-17 16,-42 21,-60 5,-21 -13,-24 -17,-40 -15,-65 9,-18 -33,-56 -32,-29 40,-94 47,-128 12,-58 15,-121 28,-179 18,-128 -37,-36 -102,-88 -4,-3 63,-71 63,-107 0,-55 -20,-88 32,-127 34,-26 74,-49 100,-84 30,-40 117,-98 164,-119l119 -55c11,-5 5,-99 11,-132 13,-70 64,-146 69,-216 -49,-92 9,-96 24,-175 14,-72 -40,-69 -90,-94 -36,-18 -26,-205 -26,-255 0,-102 122,-113 204,-140 0,84 55,167 63,255 17,191 126,194 297,183 87,-6 168,-43 255,-43 107,0 145,-83 230,-90 62,-9 109,-64 169,-79 31,-8 50,-1 79,-1 41,0 78,-51 124,-60 67,-13 61,-13 61,-78 -88,0 -83,-16 -118,-90 -14,-29 15,-36 22,-56 12,-36 -47,-50 5,-96 30,-27 27,-34 7,-65 -28,-45 57,-59 28,-106 -37,-59 -1,-98 -34,-155 -39,-83 -56,-139 -36,-235 4,-19 101,-155 118,-171 44,-39 78,-44 135,-54 49,-8 100,-116 113,-165 25,-87 4,-174 91,-238 77,-70 89,-191 154,-269 53,-63 73,-108 150,-150 27,-15 112,-9 118,-39 18,-84 79,-115 26,-199 -47,-73 93,-144 144,-200 56,-50 65,-97 52,-166 -8,-42 47,-58 68,-91 27,-42 19,-50 80,-35 72,18 195,-19 212,68 11,59 193,119 251,119 62,0 101,7 146,-40 53,-56 93,-40 161,-34 64,-7 113,-24 171,7 101,53 69,-104 75,-157 16,-140 141,-235 173,-369 17,-74 -18,-128 -18,-195 0,-92 30,-159 96,-225 19,-38 60,-139 60,-180 0,-27 50,-48 50,-104 0,-126 75,-234 75,-363 -79,0 -81,31 -134,-49 -13,-20 82,-152 99,-182 15,-59 74,-127 77,-180 3,-59 -13,-110 -13,-166 80,0 125,20 181,-51 40,-51 28,-124 61,-178 29,-47 74,-33 84,-96 11,-68 29,-139 108,-145 70,-6 83,-144 130,-185l142 -87c43,-26 55,32 96,43 36,9 80,-60 96,-83 38,-55 132,-13 190,-65 30,-27 107,-37 150,-58 36,-18 56,21 90,13 50,-10 129,-21 171,-40 60,-27 57,-125 145,-101 57,4 197,-103 227,-154l124 -211c30,-51 43,-107 96,-143 61,-41 106,-145 143,-210 36,-62 36,-192 84,-224 58,-32 84,-112 145,-122 47,-8 74,-60 101,-101 47,-72 145,-136 216,-189 76,-56 107,-75 201,-51 79,20 164,-153 224,-201 38,-31 64,-74 106,-102 50,-34 16,-110 41,-150 48,-25 36,-87 100,-121 54,-29 94,-14 94,-91 0,-134 33,-138 133,-222l197 -166c57,-48 179,-26 244,-59 58,-29 105,-83 163,-107 84,-35 126,-5 202,-20l79 1 0 0z"/>
  <polygon class="fil2 str1" points="1596,1232 4572,1232 4572,2825 1596,2825 "/>
  <path class="fil3" d="M1198 2963c0,-17 4,-34 13,-51 9,-17 22,-30 38,-39 17,-9 34,-14 52,-14 18,0 35,5 52,14 17,9 29,22 39,38 9,17 14,34 14,52 0,18 -5,35 -14,52 -9,17 -22,29 -39,39 -17,9 -34,14 -52,14 -18,0 -35,-5 -52,-14 -17,-9 -30,-22 -38,-39 -9,-17 -13,-34 -13,-51zm17 0c0,15 4,29 11,43 7,14 18,25 32,32 14,8 28,12 43,12 15,0 29,-4 43,-12 14,-8 24,-18 32,-32 8,-14 12,-28 12,-43 0,-15 -4,-29 -12,-43 -8,-14 -18,-25 -32,-32 -14,-8 -28,-11 -43,-11 -15,0 -30,4 -43,12 -14,8 -25,19 -32,32 -7,14 -11,28 -11,43zm104 -33l5 -17c12,3 21,9 28,18 7,9 10,20 10,33 0,16 -5,29 -16,39 -10,10 -25,15 -44,15 -12,0 -23,-2 -32,-7 -9,-5 -16,-11 -20,-20 -5,-9 -7,-18 -7,-29 0,-12 3,-22 9,-30 6,-8 14,-14 24,-17l4 16c-7,3 -12,7 -16,12 -4,5 -6,12 -6,19 0,11 4,19 11,26 8,7 18,10 32,10 14,0 25,-3 32,-10 7,-6 11,-15 11,-25 0,-8 -2,-16 -7,-22 -5,-6 -11,-10 -20,-12z"/>
  <path id="1" class="fil3" d="M1404 2668l-19 0c14,9 22,23 22,41 0,12 -3,22 -10,32 -6,10 -15,17 -27,23 -12,5 -25,8 -40,8 -15,0 -28,-2 -40,-7 -12,-5 -21,-12 -27,-22 -6,-10 -10,-21 -10,-33 0,-9 2,-17 6,-24 4,-7 9,-12 15,-17l-73 0 0 -25 202 0 0 23zm-73 78c19,0 33,-4 42,-12 9,-8 14,-17 14,-28 0,-11 -4,-20 -13,-28 -9,-8 -22,-11 -41,-11 -20,0 -35,4 -44,12 -9,8 -14,17 -14,29 0,11 4,20 13,28 9,7 23,11 42,11z"/>
  <polygon id="2" class="fil3" points="1343,2616 1318,2616 1318,2539 1343,2539 "/>
  <path id="3" class="fil3" d="M1404 2512l-146 0 0 -22 21 0c-7,-5 -13,-11 -17,-18 -4,-8 -7,-16 -7,-26 0,-11 2,-20 7,-27 5,-7 11,-12 19,-15 -17,-12 -26,-27 -26,-45 0,-15 4,-26 12,-34 8,-8 20,-12 37,-12l100 0 0 25 -92 0c-10,0 -17,1 -21,2 -4,2 -8,5 -11,9 -3,4 -4,9 -4,15 0,10 3,19 10,26 7,7 18,10 33,10l85 0 0 25 -95 0c-11,0 -19,2 -25,6 -6,4 -8,11 -8,20 0,7 2,13 6,19 4,6 9,10 16,13 7,3 17,4 31,4l76 0 0 25z"/>
  <path id="4" class="fil3" d="M1385 2181c8,9 13,18 17,27 3,9 5,18 5,27 0,16 -4,28 -12,37 -8,9 -18,13 -30,13 -7,0 -14,-2 -20,-5 -6,-3 -11,-8 -14,-13 -4,-5 -6,-11 -8,-18 -1,-5 -2,-12 -4,-22 -2,-20 -5,-35 -9,-44 -3,0 -6,0 -6,0 -10,0 -17,2 -21,7 -6,6 -8,16 -8,28 0,12 2,20 6,26 4,6 11,10 22,12l-3 24c-10,-2 -19,-6 -25,-11 -6,-5 -11,-12 -15,-22 -3,-10 -5,-21 -5,-33 0,-13 1,-23 4,-31 3,-8 7,-14 11,-17 4,-4 10,-6 17,-8 4,-1 12,-1 23,-1l33 0c23,0 38,-1 44,-2 6,-1 12,-3 18,-6l0 26c-5,3 -11,4 -18,5zm-55 2c4,9 7,23 9,41 1,10 3,17 5,22 2,4 5,7 8,10 4,2 7,3 12,3 7,0 12,-2 16,-8 4,-5 7,-12 7,-22 0,-10 -2,-18 -6,-26 -4,-7 -10,-13 -17,-16 -6,-3 -14,-4 -25,-4l-9 0z"/>
  <path id="5" class="fil3" d="M1460 2120l-203 0 0 -23 19 0c-7,-5 -13,-11 -17,-18 -4,-7 -6,-15 -6,-24 0,-13 3,-24 10,-33 6,-10 15,-17 27,-22 12,-5 25,-7 38,-7 15,0 28,3 40,8 12,5 21,13 28,23 6,10 10,21 10,32 0,8 -2,16 -5,22 -3,7 -8,12 -13,16l71 0 0 25zm-129 -23c19,0 33,-4 42,-11 9,-8 13,-17 13,-28 0,-11 -5,-20 -14,-28 -9,-8 -24,-12 -43,-12 -19,0 -33,4 -42,11 -9,8 -14,17 -14,27 0,11 5,20 15,28 10,8 24,12 43,12z"/>
  <path id="6" class="fil3" d="M1360 1973l-4 -25c10,-1 17,-5 23,-12 5,-6 8,-15 8,-26 0,-11 -2,-20 -7,-25 -5,-6 -10,-8 -16,-8 -6,0 -10,3 -13,7 -2,3 -5,12 -8,25 -5,18 -9,31 -12,38 -3,7 -8,12 -14,16 -6,4 -12,5 -20,5 -7,0 -13,-2 -18,-4 -6,-3 -10,-7 -14,-12 -3,-4 -5,-9 -7,-16 -2,-7 -3,-14 -3,-21 0,-11 2,-22 5,-30 3,-9 8,-15 13,-19 6,-4 13,-7 23,-9l3 24c-8,1 -14,4 -18,10 -4,5 -6,13 -6,22 0,11 2,19 6,24 4,5 8,7 13,7 3,0 6,-1 9,-3 3,-2 5,-5 7,-10 1,-3 3,-10 6,-22 5,-18 9,-30 11,-37 3,-7 7,-12 13,-16 6,-4 13,-6 21,-6 8,0 16,2 23,7 7,5 13,12 17,21 4,9 6,19 6,31 0,19 -4,34 -12,44 -8,10 -20,16 -35,19z"/>
  <polygon id="7" class="fil3" points="1404,1815 1376,1815 1376,1786 1404,1786 "/>
  <path id="8" class="fil3" d="M1350 1648l3 -24c17,3 30,9 39,20 9,11 14,24 14,40 0,20 -7,36 -20,48 -13,12 -32,18 -56,18 -16,0 -30,-3 -41,-8 -12,-5 -21,-13 -27,-24 -6,-11 -9,-22 -9,-35 0,-16 4,-29 12,-39 8,-10 19,-17 34,-19l4 24c-10,2 -17,6 -22,12 -5,6 -7,13 -7,21 0,13 4,23 13,31 9,8 23,12 42,12 20,0 34,-4 43,-11 9,-8 13,-17 13,-29 0,-10 -3,-18 -9,-24 -6,-7 -15,-11 -27,-12z"/>
  <path id="9" class="fil3" d="M1331 1612c-27,0 -47,-8 -60,-23 -11,-13 -16,-28 -16,-46 0,-20 7,-37 20,-49 13,-13 31,-19 55,-19 19,0 34,3 44,8 11,6 19,14 25,25 6,11 9,23 9,35 0,21 -7,37 -20,50 -13,13 -32,19 -57,19zm0 -25c19,0 33,-4 42,-12 9,-8 14,-19 14,-31 0,-12 -5,-23 -14,-31 -9,-8 -24,-12 -43,-12 -18,0 -32,4 -41,12 -9,8 -14,18 -14,31 0,12 5,23 14,31 9,8 23,12 42,12z"/>
  <path id="10" class="fil3" d="M1404 1445l-146 0 0 -22 21 0c-7,-5 -13,-11 -17,-18 -4,-8 -7,-16 -7,-26 0,-11 2,-20 7,-27 5,-7 11,-12 19,-15 -17,-12 -26,-27 -26,-45 0,-15 4,-26 12,-34 8,-8 20,-12 37,-12l100 0 0 25 -92 0c-10,0 -17,1 -21,2 -4,2 -8,5 -11,9 -3,4 -4,9 -4,15 0,10 3,19 10,26 7,7 18,10 33,10l85 0 0 25 -95 0c-11,0 -19,2 -25,6 -6,4 -8,11 -8,20 0,7 2,13 6,19 4,6 9,10 16,13 7,3 17,4 31,4l76 0 0 25z"/>
  <g id="_2502231511360">
   <g>
    <polygon class="fil4 str2" points="1738,1827 2412,1827 2412,1927 1738,1927 "/>
    <polygon class="fil5 str2" points="2412,1827 3085,1827 3085,1927 2412,1927 "/>
    <polygon class="fil4 str2" points="3085,1827 3759,1827 3759,1927 3085,1927 "/>
    <polygon class="fil5 str2" points="3759,1827 4433,1827 4433,1927 3759,1927 "/>
    <polygon class="fil4 str2" points="2818,2126 3895,2126 3895,2226 2818,2226 "/>
    <polygon class="fil5 str2" points="1740,2126 2818,2126 2818,2226 1740,2226 "/>
   </g>
   <path class="fil6" d="M2792 1613l-16 45 -138 0 0 -6c41,-37 69,-67 86,-91 17,-23 25,-45 25,-64 0,-15 -5,-27 -14,-37 -9,-10 -20,-14 -33,-14 -12,0 -22,3 -31,10 -9,7 -16,16 -20,29l-6 0c3,-21 10,-37 22,-49 12,-11 27,-17 45,-17 19,0 35,6 48,18 13,12 19,27 19,43 0,12 -3,24 -8,36 -8,19 -22,38 -41,59 -29,31 -46,50 -53,56l60 0c12,0 21,0 26,-1 5,-1 9,-3 13,-6 4,-3 7,-7 10,-12l7 0z"/>
   <path id="1" class="fil6" d="M2819 1543c0,-27 4,-50 12,-69 8,-19 19,-34 32,-43 10,-7 21,-11 32,-11 18,0 34,9 48,27 18,23 27,53 27,92 0,27 -4,50 -12,69 -8,19 -18,33 -30,41 -12,9 -24,13 -35,13 -22,0 -41,-13 -56,-39 -13,-22 -19,-49 -19,-80zm34 4c0,32 4,58 12,79 7,17 16,26 29,26 6,0 13,-3 19,-8 7,-6 12,-15 15,-28 5,-20 8,-48 8,-83 0,-27 -3,-49 -8,-67 -4,-13 -9,-23 -16,-28 -5,-4 -10,-6 -17,-6 -8,0 -15,4 -21,11 -8,10 -14,24 -17,45 -3,20 -4,41 -4,60z"/>
   <path id="2" class="fil6" d="M3129 1413l0 157 40 -37c9,-8 13,-13 15,-15 1,-1 1,-3 1,-4 0,-2 -1,-4 -3,-6 -2,-2 -5,-3 -9,-3l0 -6 69 0 0 6c-9,0 -17,2 -23,4 -6,3 -13,7 -21,14l-41 37 40 51c11,14 19,23 23,27 6,5 10,9 15,10 3,1 8,2 15,2l0 6 -77 0 0 -6c4,0 7,-1 9,-2 2,-1 2,-3 2,-5 0,-3 -2,-7 -7,-13l-48 -62 0 52c0,10 1,17 2,20 1,3 3,5 6,7 3,1 8,2 17,2l0 6 -80 0 0 -6c8,0 14,-1 18,-3 2,-1 4,-3 5,-6 2,-4 3,-10 3,-20l0 -144c0,-18 0,-29 -1,-33 -1,-4 -2,-7 -4,-8 -2,-2 -4,-2 -7,-2 -2,0 -6,1 -11,3l-3 -6 47 -19 8 0z"/>
   <path id="3" class="fil6" d="M3306 1529c11,-12 18,-18 20,-20 5,-4 11,-8 17,-10 6,-2 12,-4 18,-4 10,0 18,3 25,9 7,6 12,14 14,25 12,-14 22,-23 30,-27 8,-4 17,-6 25,-6 8,0 16,2 22,6 6,4 12,11 15,21 3,7 4,17 4,31l0 68c0,10 1,17 2,20 1,2 3,5 6,6 3,2 8,3 15,3l0 6 -77 0 0 -6 3 0c7,0 12,-1 16,-4 3,-2 5,-5 6,-9 0,-2 1,-7 1,-17l0 -68c0,-13 -2,-22 -5,-27 -5,-7 -12,-11 -22,-11 -6,0 -12,2 -18,5 -6,3 -14,9 -22,17l0 2 1 7 0 75c0,11 1,17 2,20 1,3 3,5 7,7 3,2 9,3 17,3l0 6 -79 0 0 -6c9,0 15,-1 18,-3 3,-2 5,-5 7,-9 1,-2 1,-8 1,-17l0 -68c0,-13 -2,-22 -6,-28 -5,-7 -12,-11 -21,-11 -6,0 -12,2 -18,5 -9,5 -17,11 -22,17l0 85c0,10 1,17 2,20 1,3 4,5 6,7 3,2 8,2 17,2l0 6 -78 0 0 -6c7,0 12,-1 15,-2 3,-2 5,-4 7,-7 1,-3 2,-10 2,-20l0 -60c0,-17 -1,-28 -2,-34 -1,-4 -2,-6 -4,-8 -2,-1 -4,-2 -7,-2 -3,0 -7,1 -12,3l-3 -6 48 -19 7 0 0 34z"/>
   <path class="fil6" d="M2460 2417l57 -28 6 0 0 197c0,13 1,21 2,25 1,3 3,6 7,7 3,2 11,3 21,3l0 6 -88 0 0 -6c11,0 18,-1 21,-3 3,-2 5,-4 7,-7 1,-3 2,-11 2,-25l0 -126c0,-17 -1,-28 -2,-33 -1,-4 -2,-6 -4,-8 -2,-2 -5,-3 -8,-3 -4,0 -10,2 -18,5l-3 -5z"/>
   <path id="1" class="fil6" d="M2918 2499c11,-12 18,-18 20,-20 5,-4 11,-8 17,-10 6,-2 12,-4 18,-4 10,0 18,3 25,9 7,6 12,14 14,25 12,-14 22,-23 30,-27 8,-4 17,-6 25,-6 8,0 16,2 22,6 6,4 12,11 15,21 3,7 4,17 4,31l0 68c0,10 1,17 2,20 1,2 3,5 6,6 3,2 8,3 15,3l0 6 -77 0 0 -6 3 0c7,0 12,-1 16,-4 3,-2 5,-5 6,-9 0,-2 1,-7 1,-17l0 -68c0,-13 -2,-22 -5,-27 -5,-7 -12,-11 -22,-11 -6,0 -12,2 -18,5 -6,3 -14,9 -22,17l0 2 1 7 0 75c0,11 1,17 2,20 1,3 3,5 7,7 3,2 9,3 17,3l0 6 -79 0 0 -6c9,0 15,-1 18,-3 3,-2 5,-5 7,-9 1,-2 1,-8 1,-17l0 -68c0,-13 -2,-22 -6,-28 -5,-7 -12,-11 -21,-11 -6,0 -12,2 -18,5 -9,5 -17,11 -22,17l0 85c0,10 1,17 2,20 1,3 4,5 6,7 3,2 8,2 17,2l0 6 -78 0 0 -6c7,0 12,-1 15,-2 3,-2 5,-4 7,-7 1,-3 2,-10 2,-20l0 -60c0,-17 -1,-28 -2,-34 -1,-4 -2,-6 -4,-8 -2,-1 -4,-2 -7,-2 -3,0 -7,1 -12,3l-3 -6 48 -19 7 0 0 34z"/>
   <path id="2" class="fil6" d="M3186 2383c5,0 9,2 12,5 3,3 5,8 5,12 0,5 -2,9 -5,12 -3,3 -8,5 -12,5 -5,0 -9,-2 -12,-5 -3,-3 -5,-8 -5,-12 0,-5 2,-9 5,-12 3,-3 8,-5 13,-5zm14 83l0 127c0,10 1,16 2,20 1,3 4,6 6,7 3,2 8,2 15,2l0 6 -77 0 0 -6c8,0 13,-1 15,-2 3,-1 5,-4 6,-7 2,-3 2,-10 2,-20l0 -61c0,-17 -1,-28 -2,-33 -1,-4 -2,-6 -4,-8 -2,-1 -4,-2 -7,-2 -3,0 -7,1 -12,3l-2 -6 47 -19 8 0z"/>
   <path id="3" class="fil6" d="M2608 2512c0,-27 4,-50 12,-69 8,-19 19,-34 32,-43 10,-7 21,-11 32,-11 18,0 34,9 48,27 18,23 27,53 27,92 0,27 -4,50 -12,69 -8,19 -18,33 -30,41 -12,9 -24,13 -35,13 -22,0 -41,-13 -56,-39 -13,-22 -19,-49 -19,-80zm34 4c0,32 4,58 12,79 7,17 16,26 29,26 6,0 13,-3 19,-8 7,-6 12,-15 15,-28 5,-20 8,-48 8,-83 0,-27 -3,-49 -8,-67 -4,-13 -9,-23 -16,-28 -5,-4 -10,-6 -17,-6 -8,0 -15,4 -21,11 -8,10 -14,24 -17,45 -3,20 -4,41 -4,60z"/>
  </g>
  <rect class="fil7 str3" x="1000" y="1000" width="18995" height="20722"/>
  <g id="_2502231507680">
   <polygon class="fil2 str1" points="4719,1239 5535,1239 5535,2832 4719,2832 "/>
   <path class="fil8" d="M5067 1676c-1,3 -2,6 -2,9 0,3 -1,5 -1,7 0,6 2,10 5,12 3,2 10,3 18,3l4 0 -5 23 -78 0 5 -23 3 0c7,0 13,-2 16,-5 4,-3 6,-8 8,-16l38 -154c1,-3 1,-6 2,-8 0,-3 1,-6 1,-9 0,-5 -2,-9 -6,-11 -4,-2 -11,-3 -20,-3l-3 0 5 -23 72 0 62 184 31 -129c1,-4 2,-8 2,-10 0,-3 1,-5 1,-6 0,-6 -2,-10 -5,-12 -4,-2 -10,-3 -18,-3l-4 0 5 -23 79 0 -6 23 -3 0c-7,0 -13,2 -16,5 -4,3 -6,8 -8,16l-51 208 -22 0 -72 -209 -37 155z"/>
   <line class="fil7 str4" x1="5128" y1="2699" x2="5128" y2= "1930" />
   <line class="fil7 str4" x1="4846" y1="2423" x2="5409" y2= "2423" />
   <line class="fil7 str4" x1="4983" y1="2563" x2="5277" y2= "2276" />
   <line class="fil7 str4" x1="4980" y1="2276" x2="5278" y2= "2565" />
   <line class="fil7 str4" x1="5128" y1="1933" x2="5032" y2= "2051" />
   <line class="fil7 str4" x1="5128" y1="1933" x2="5216" y2= "2051" />
  </g>
  <g id="_2502231503520">
   <polygon class="fil2 str1" points="8605,1239 8605,1713 6296,1713 6296,1239 "/>
   <path class="fil8" d="M7373 1578l0 -202 40 0 48 143c4,13 8,23 10,30 2,-7 6,-18 11,-32l49 -141 36 0 0 202 -26 0 0 -169 -59 169 -24 0 -58 -172 0 172 -26 0z"/>
   <path id="1" class="fil8" d="M7706 1531l26 3c-4,15 -11,27 -22,35 -11,8 -25,12 -42,12 -21,0 -38,-7 -51,-20 -13,-13 -19,-32 -19,-55 0,-25 6,-44 19,-57 13,-14 29,-20 49,-20 20,0 35,7 48,20 12,13 19,32 19,56 0,1 0,4 0,7l-109 0c1,16 5,28 14,37 8,9 18,13 31,13 9,0 17,-2 23,-7 6,-5 12,-12 15,-23zm-81 -40l82 0c-1,-12 -4,-22 -9,-28 -8,-10 -18,-14 -31,-14 -11,0 -21,4 -29,11 -8,8 -12,18 -13,31z"/>
   <path id="2" class="fil8" d="M7762 1578l0 -146 22 0 0 22c6,-10 11,-17 16,-21 5,-3 10,-5 16,-5 8,0 17,3 26,8l-9 23c-6,-3 -12,-5 -18,-5 -5,0 -10,2 -15,5 -4,3 -7,8 -9,14 -3,9 -4,18 -4,29l0 77 -25 0z"/>
   <path id="3" class="fil8" d="M7952 1524l24 3c-3,17 -9,30 -20,39 -11,9 -24,14 -40,14 -20,0 -36,-7 -48,-20 -12,-13 -18,-32 -18,-56 0,-16 3,-30 8,-41 5,-12 13,-21 24,-27 11,-6 22,-9 35,-9 16,0 29,4 39,12 10,8 17,19 19,34l-24 4c-2,-10 -6,-17 -12,-22 -6,-5 -13,-7 -21,-7 -13,0 -23,4 -31,13 -8,9 -12,23 -12,42 0,20 4,34 11,43 8,9 17,13 29,13 10,0 18,-3 24,-9 7,-6 11,-15 12,-27z"/>
   <path id="4" class="fil8" d="M8093 1560c-9,8 -18,13 -27,17 -9,3 -18,5 -27,5 -16,0 -28,-4 -37,-12 -9,-8 -13,-18 -13,-30 0,-7 2,-14 5,-20 3,-6 8,-11 13,-14 5,-4 11,-6 18,-8 5,-1 12,-2 22,-4 20,-2 35,-5 44,-9 0,-3 0,-6 0,-6 0,-10 -2,-17 -7,-21 -6,-6 -16,-8 -28,-8 -12,0 -20,2 -26,6 -6,4 -10,11 -12,22l-24 -3c2,-10 6,-19 11,-25 5,-6 12,-11 22,-15 10,-3 21,-5 33,-5 13,0 23,1 31,4 8,3 14,7 17,11 4,4 6,10 8,17 1,4 1,12 1,23l0 33c0,23 1,38 2,44 1,6 3,12 6,18l-26 0c-3,-5 -4,-11 -5,-18zm-2 -55c-9,4 -23,7 -41,9 -10,1 -17,3 -22,5 -4,2 -7,5 -10,8 -2,4 -3,7 -3,12 0,7 2,12 8,16 5,4 12,7 22,7 10,0 18,-2 26,-6 7,-4 13,-10 16,-17 3,-6 4,-14 4,-25l0 -9z"/>
   <path id="5" class="fil8" d="M8209 1556l3 22c-7,1 -13,2 -19,2 -9,0 -16,-1 -21,-4 -5,-3 -8,-7 -10,-11 -2,-5 -3,-14 -3,-29l0 -84 -18 0 0 -19 18 0 0 -36 25 -15 0 51 25 0 0 19 -25 0 0 86c0,7 0,12 1,14 1,2 2,4 4,5 2,1 5,2 8,2 3,0 6,0 11,-1z"/>
   <path id="6" class="fil8" d="M8224 1505c0,-27 8,-47 23,-60 13,-11 28,-16 46,-16 20,0 37,7 49,20 13,13 19,31 19,55 0,19 -3,34 -8,44 -6,11 -14,19 -25,25 -11,6 -23,9 -35,9 -21,0 -37,-7 -50,-20 -13,-13 -19,-32 -19,-57zm25 0c0,19 4,33 12,42 8,9 19,14 31,14 12,0 23,-5 31,-14 8,-9 12,-24 12,-43 0,-18 -4,-32 -12,-41 -8,-9 -18,-14 -31,-14 -12,0 -23,5 -31,14 -8,9 -12,23 -12,42z"/>
   <path id="7" class="fil8" d="M8390 1578l0 -146 22 0 0 22c6,-10 11,-17 16,-21 5,-3 10,-5 16,-5 8,0 17,3 26,8l-9 23c-6,-3 -12,-5 -18,-5 -5,0 -10,2 -15,5 -4,3 -7,8 -9,14 -3,9 -4,18 -4,29l0 77 -25 0z"/>
   <circle class="fil9 str5" cx="6514" cy="1473" r="119"/>
   <rect class="fil9 str5" x="6972" y="1364" width="227" height="227"/>
   <line class="fil7 str6" x1="6688" y1="1472" x2="6908" y2= "1472" />
   <line class="fil7 str6" x1="6906" y1="1472" x2="6842" y2= "1538" />
   <line class="fil7 str6" x1="6906" y1="1471" x2="6842" y2= "1410" />
  </g>
 </g>
</svg>
